<svg width="1000" height="400" viewBox="0 0 1000 400" fill="none" xmlns="http://www.w3.org/2000/svg">
<rect x="596.6" y="89.6" width="393.8" height="58.8" rx="23.4" fill="black" stroke="#858585" stroke-width="1.2"/>
<rect x="596.6" y="169.6" width="393.8" height="58.8" rx="23.4" fill="black" stroke="#858585" stroke-width="1.2"/>
<rect x="596.6" y="11.6" width="393.8" height="58.8" rx="23.4" fill="black" stroke="#858585" stroke-width="1.2"/>
<path d="M620 249.6H967C979.923 249.6 990.4 260.077 990.4 273V285C990.4 297.923 979.923 308.4 967 308.4H620C607.077 308.4 596.6 297.923 596.6 285V273C596.6 260.077 607.077 249.6 620 249.6Z" fill="black" stroke="#858585" stroke-width="1.2"/>
<rect x="596.6" y="329.6" width="393.8" height="58.8" rx="23.4" fill="black" stroke="#9F9F9F" stroke-width="1.2"/>
<path d="M154 198.9H152.9V201.1H154V200V198.9ZM206 201.1L217 206.351V193.649L206 198.9V201.1ZM154 200V201.1H207.1V200V198.9H154V200Z" fill="#E5E5E5"/>
<path d="M391 177C468 147 479.5 42 595.5 42" stroke="#FF0004" stroke-width="2.2" stroke-linecap="round"/>
<path d="M391.441 224.965C468.44 254.965 479.94 359.965 595.94 359.965" stroke="#006AFF" stroke-width="2.2" stroke-linecap="round"/>
<path d="M392 189.933C475 181.433 525.5 119.433 595.5 119.433" stroke="#FF8800" stroke-width="2.2" stroke-linecap="round"/>
<path d="M392 211.433C475 219.933 525.5 281.933 595.5 281.933" stroke="#00FF11" stroke-width="2.2" stroke-linecap="round"/>
<path d="M391 200L596 200" stroke="#FFE100" stroke-width="2.2" stroke-linecap="round"/>
<rect x="217.6" y="150.6" width="172.8" height="98.8" rx="23.4" fill="black" stroke="#858585" stroke-width="1.2"/>
<path d="M686.08 129.14C685.147 129.14 684.307 128.98 683.56 128.66C682.813 128.327 682.227 127.86 681.8 127.26C681.373 126.66 681.16 125.96 681.16 125.16H683.6C683.653 125.76 683.887 126.253 684.3 126.64C684.727 127.027 685.32 127.22 686.08 127.22C686.867 127.22 687.48 127.033 687.92 126.66C688.36 126.273 688.58 125.78 688.58 125.18C688.58 124.713 688.44 124.333 688.16 124.04C687.893 123.747 687.553 123.52 687.14 123.36C686.74 123.2 686.18 123.027 685.46 122.84C684.553 122.6 683.813 122.36 683.24 122.12C682.68 121.867 682.2 121.48 681.8 120.96C681.4 120.44 681.2 119.747 681.2 118.88C681.2 118.08 681.4 117.38 681.8 116.78C682.2 116.18 682.76 115.72 683.48 115.4C684.2 115.08 685.033 114.92 685.98 114.92C687.327 114.92 688.427 115.26 689.28 115.94C690.147 116.607 690.627 117.527 690.72 118.7H688.2C688.16 118.193 687.92 117.76 687.48 117.4C687.04 117.04 686.46 116.86 685.74 116.86C685.087 116.86 684.553 117.027 684.14 117.36C683.727 117.693 683.52 118.173 683.52 118.8C683.52 119.227 683.647 119.58 683.9 119.86C684.167 120.127 684.5 120.34 684.9 120.5C685.3 120.66 685.847 120.833 686.54 121.02C687.46 121.273 688.207 121.527 688.78 121.78C689.367 122.033 689.86 122.427 690.26 122.96C690.673 123.48 690.88 124.18 690.88 125.06C690.88 125.767 690.687 126.433 690.3 127.06C689.927 127.687 689.373 128.193 688.64 128.58C687.92 128.953 687.067 129.14 686.08 129.14ZM704.67 115.1V129H702.39V122.92H695.85V129H693.57V115.1H695.85V121.06H702.39V115.1H704.67ZM716.052 126.16H710.232L709.232 129H706.852L711.832 115.08H714.472L719.452 129H717.052L716.052 126.16ZM715.412 124.3L713.152 117.84L710.872 124.3H715.412ZM731.337 119.24C731.337 119.947 731.171 120.613 730.837 121.24C730.504 121.867 729.971 122.38 729.237 122.78C728.504 123.167 727.564 123.36 726.417 123.36H723.897V129H721.617V115.1H726.417C727.484 115.1 728.384 115.287 729.117 115.66C729.864 116.02 730.417 116.513 730.777 117.14C731.151 117.767 731.337 118.467 731.337 119.24ZM726.417 121.5C727.284 121.5 727.931 121.307 728.357 120.92C728.784 120.52 728.997 119.96 728.997 119.24C728.997 117.72 728.137 116.96 726.417 116.96H723.897V121.5H726.417ZM740.987 116.94V121.02H745.787V122.88H740.987V127.14H746.387V129H738.707V115.08H746.387V116.94H740.987ZM753.915 123.42L757.475 129H754.895L752.515 125.26L750.275 129H747.895L751.455 123.58L747.895 117.98H750.475L752.855 121.72L755.095 117.98H757.475L753.915 123.42ZM761.456 119.6C761.842 119.093 762.369 118.667 763.036 118.32C763.702 117.973 764.456 117.8 765.296 117.8C766.256 117.8 767.129 118.04 767.916 118.52C768.716 118.987 769.342 119.647 769.796 120.5C770.249 121.353 770.476 122.333 770.476 123.44C770.476 124.547 770.249 125.54 769.796 126.42C769.342 127.287 768.716 127.967 767.916 128.46C767.129 128.94 766.256 129.18 765.296 129.18C764.456 129.18 763.709 129.013 763.056 128.68C762.402 128.333 761.869 127.907 761.456 127.4V134.24H759.176V117.98H761.456V119.6ZM768.156 123.44C768.156 122.68 767.996 122.027 767.676 121.48C767.369 120.92 766.956 120.5 766.436 120.22C765.929 119.927 765.382 119.78 764.796 119.78C764.222 119.78 763.676 119.927 763.156 120.22C762.649 120.513 762.236 120.94 761.916 121.5C761.609 122.06 761.456 122.72 761.456 123.48C761.456 124.24 761.609 124.907 761.916 125.48C762.236 126.04 762.649 126.467 763.156 126.76C763.676 127.053 764.222 127.2 764.796 127.2C765.382 127.2 765.929 127.053 766.436 126.76C766.956 126.453 767.369 126.013 767.676 125.44C767.996 124.867 768.156 124.2 768.156 123.44ZM775.01 114.2V129H772.73V114.2H775.01ZM777.244 123.44C777.244 122.333 777.471 121.353 777.924 120.5C778.391 119.647 779.017 118.987 779.804 118.52C780.604 118.04 781.484 117.8 782.444 117.8C783.311 117.8 784.064 117.973 784.704 118.32C785.357 118.653 785.877 119.073 786.264 119.58V117.98H788.564V129H786.264V127.36C785.877 127.88 785.351 128.313 784.684 128.66C784.017 129.007 783.257 129.18 782.404 129.18C781.457 129.18 780.591 128.94 779.804 128.46C779.017 127.967 778.391 127.287 777.924 126.42C777.471 125.54 777.244 124.547 777.244 123.44ZM786.264 123.48C786.264 122.72 786.104 122.06 785.784 121.5C785.477 120.94 785.071 120.513 784.564 120.22C784.057 119.927 783.511 119.78 782.924 119.78C782.337 119.78 781.791 119.927 781.284 120.22C780.777 120.5 780.364 120.92 780.044 121.48C779.737 122.027 779.584 122.68 779.584 123.44C779.584 124.2 779.737 124.867 780.044 125.44C780.364 126.013 780.777 126.453 781.284 126.76C781.804 127.053 782.351 127.2 782.924 127.2C783.511 127.2 784.057 127.053 784.564 126.76C785.071 126.467 785.477 126.04 785.784 125.48C786.104 124.907 786.264 124.24 786.264 123.48ZM792.719 116.52C792.305 116.52 791.959 116.38 791.679 116.1C791.399 115.82 791.259 115.473 791.259 115.06C791.259 114.647 791.399 114.3 791.679 114.02C791.959 113.74 792.305 113.6 792.719 113.6C793.119 113.6 793.459 113.74 793.739 114.02C794.019 114.3 794.159 114.647 794.159 115.06C794.159 115.473 794.019 115.82 793.739 116.1C793.459 116.38 793.119 116.52 792.719 116.52ZM793.839 117.98V129H791.559V117.98H793.839ZM802.392 117.8C803.259 117.8 804.032 117.98 804.712 118.34C805.405 118.7 805.945 119.233 806.332 119.94C806.719 120.647 806.912 121.5 806.912 122.5V129H804.652V122.84C804.652 121.853 804.405 121.1 803.912 120.58C803.419 120.047 802.745 119.78 801.892 119.78C801.039 119.78 800.359 120.047 799.852 120.58C799.359 121.1 799.112 121.853 799.112 122.84V129H796.832V117.98H799.112V119.24C799.485 118.787 799.959 118.433 800.532 118.18C801.119 117.927 801.739 117.8 802.392 117.8ZM819.92 123.22C819.92 123.633 819.894 124.007 819.84 124.34H811.42C811.487 125.22 811.814 125.927 812.4 126.46C812.987 126.993 813.707 127.26 814.56 127.26C815.787 127.26 816.654 126.747 817.16 125.72H819.62C819.287 126.733 818.68 127.567 817.8 128.22C816.934 128.86 815.854 129.18 814.56 129.18C813.507 129.18 812.56 128.947 811.72 128.48C810.894 128 810.24 127.333 809.76 126.48C809.294 125.613 809.06 124.613 809.06 123.48C809.06 122.347 809.287 121.353 809.74 120.5C810.207 119.633 810.854 118.967 811.68 118.5C812.52 118.033 813.48 117.8 814.56 117.8C815.6 117.8 816.527 118.027 817.34 118.48C818.154 118.933 818.787 119.573 819.24 120.4C819.694 121.213 819.92 122.153 819.92 123.22ZM817.54 122.5C817.527 121.66 817.227 120.987 816.64 120.48C816.054 119.973 815.327 119.72 814.46 119.72C813.674 119.72 813 119.973 812.44 120.48C811.88 120.973 811.547 121.647 811.44 122.5H817.54ZM824.444 119.58C824.777 119.02 825.217 118.587 825.764 118.28C826.324 117.96 826.984 117.8 827.744 117.8V120.16H827.164C826.271 120.16 825.591 120.387 825.124 120.84C824.671 121.293 824.444 122.08 824.444 123.2V129H822.164V117.98H824.444V119.58Z" fill="white"/>
<path d="M680.74 199.02C680.74 197.66 681.053 196.44 681.68 195.36C682.32 194.28 683.18 193.44 684.26 192.84C685.353 192.227 686.547 191.92 687.84 191.92C689.32 191.92 690.633 192.287 691.78 193.02C692.94 193.74 693.78 194.767 694.3 196.1H691.56C691.2 195.367 690.7 194.82 690.06 194.46C689.42 194.1 688.68 193.92 687.84 193.92C686.92 193.92 686.1 194.127 685.38 194.54C684.66 194.953 684.093 195.547 683.68 196.32C683.28 197.093 683.08 197.993 683.08 199.02C683.08 200.047 683.28 200.947 683.68 201.72C684.093 202.493 684.66 203.093 685.38 203.52C686.1 203.933 686.92 204.14 687.84 204.14C688.68 204.14 689.42 203.96 690.06 203.6C690.7 203.24 691.2 202.693 691.56 201.96H694.3C693.78 203.293 692.94 204.32 691.78 205.04C690.633 205.76 689.32 206.12 687.84 206.12C686.533 206.12 685.34 205.82 684.26 205.22C683.18 204.607 682.32 203.76 681.68 202.68C681.053 201.6 680.74 200.38 680.74 199.02ZM701.749 206.18C700.709 206.18 699.769 205.947 698.929 205.48C698.089 205 697.429 204.333 696.949 203.48C696.469 202.613 696.229 201.613 696.229 200.48C696.229 199.36 696.475 198.367 696.969 197.5C697.462 196.633 698.135 195.967 698.989 195.5C699.842 195.033 700.795 194.8 701.849 194.8C702.902 194.8 703.855 195.033 704.709 195.5C705.562 195.967 706.235 196.633 706.729 197.5C707.222 198.367 707.469 199.36 707.469 200.48C707.469 201.6 707.215 202.593 706.709 203.46C706.202 204.327 705.509 205 704.629 205.48C703.762 205.947 702.802 206.18 701.749 206.18ZM701.749 204.2C702.335 204.2 702.882 204.06 703.389 203.78C703.909 203.5 704.329 203.08 704.649 202.52C704.969 201.96 705.129 201.28 705.129 200.48C705.129 199.68 704.975 199.007 704.669 198.46C704.362 197.9 703.955 197.48 703.449 197.2C702.942 196.92 702.395 196.78 701.809 196.78C701.222 196.78 700.675 196.92 700.169 197.2C699.675 197.48 699.282 197.9 698.989 198.46C698.695 199.007 698.549 199.68 698.549 200.48C698.549 201.667 698.849 202.587 699.449 203.24C700.062 203.88 700.829 204.2 701.749 204.2ZM719.703 194.98V206H717.423V204.7C717.063 205.153 716.589 205.513 716.003 205.78C715.429 206.033 714.816 206.16 714.163 206.16C713.296 206.16 712.516 205.98 711.823 205.62C711.143 205.26 710.603 204.727 710.203 204.02C709.816 203.313 709.623 202.46 709.623 201.46V194.98H711.883V201.12C711.883 202.107 712.129 202.867 712.623 203.4C713.116 203.92 713.789 204.18 714.643 204.18C715.496 204.18 716.169 203.92 716.663 203.4C717.169 202.867 717.423 202.107 717.423 201.12V194.98H719.703ZM728.271 194.8C729.138 194.8 729.911 194.98 730.591 195.34C731.284 195.7 731.824 196.233 732.211 196.94C732.598 197.647 732.791 198.5 732.791 199.5V206H730.531V199.84C730.531 198.853 730.284 198.1 729.791 197.58C729.298 197.047 728.624 196.78 727.771 196.78C726.918 196.78 726.238 197.047 725.731 197.58C725.238 198.1 724.991 198.853 724.991 199.84V206H722.711V194.98H724.991V196.24C725.364 195.787 725.838 195.433 726.411 195.18C726.998 194.927 727.618 194.8 728.271 194.8ZM738.359 196.84V202.94C738.359 203.353 738.453 203.653 738.639 203.84C738.839 204.013 739.173 204.1 739.639 204.1H741.039V206H739.239C738.213 206 737.426 205.76 736.879 205.28C736.333 204.8 736.059 204.02 736.059 202.94V196.84H734.759V194.98H736.059V192.24H738.359V194.98H741.039V196.84H738.359ZM753.241 200.22C753.241 200.633 753.214 201.007 753.161 201.34H744.741C744.807 202.22 745.134 202.927 745.721 203.46C746.307 203.993 747.027 204.26 747.881 204.26C749.107 204.26 749.974 203.747 750.481 202.72H752.941C752.607 203.733 752.001 204.567 751.121 205.22C750.254 205.86 749.174 206.18 747.881 206.18C746.827 206.18 745.881 205.947 745.041 205.48C744.214 205 743.561 204.333 743.081 203.48C742.614 202.613 742.381 201.613 742.381 200.48C742.381 199.347 742.607 198.353 743.061 197.5C743.527 196.633 744.174 195.967 745.001 195.5C745.841 195.033 746.801 194.8 747.881 194.8C748.921 194.8 749.847 195.027 750.661 195.48C751.474 195.933 752.107 196.573 752.561 197.4C753.014 198.213 753.241 199.153 753.241 200.22ZM750.861 199.5C750.847 198.66 750.547 197.987 749.961 197.48C749.374 196.973 748.647 196.72 747.781 196.72C746.994 196.72 746.321 196.973 745.761 197.48C745.201 197.973 744.867 198.647 744.761 199.5H750.861ZM757.764 196.58C758.098 196.02 758.538 195.587 759.084 195.28C759.644 194.96 760.304 194.8 761.064 194.8V197.16H760.484C759.591 197.16 758.911 197.387 758.444 197.84C757.991 198.293 757.764 199.08 757.764 200.2V206H755.484V194.98H757.764V196.58ZM767.78 196.84H765.74V206H763.44V196.84H762.14V194.98H763.44V194.2C763.44 192.933 763.773 192.013 764.44 191.44C765.12 190.853 766.18 190.56 767.62 190.56V192.46C766.927 192.46 766.44 192.593 766.16 192.86C765.88 193.113 765.74 193.56 765.74 194.2V194.98H767.78V196.84ZM769.041 200.44C769.041 199.333 769.267 198.353 769.721 197.5C770.187 196.647 770.814 195.987 771.601 195.52C772.401 195.04 773.281 194.8 774.241 194.8C775.107 194.8 775.861 194.973 776.501 195.32C777.154 195.653 777.674 196.073 778.061 196.58V194.98H780.361V206H778.061V204.36C777.674 204.88 777.147 205.313 776.481 205.66C775.814 206.007 775.054 206.18 774.201 206.18C773.254 206.18 772.387 205.94 771.601 205.46C770.814 204.967 770.187 204.287 769.721 203.42C769.267 202.54 769.041 201.547 769.041 200.44ZM778.061 200.48C778.061 199.72 777.901 199.06 777.581 198.5C777.274 197.94 776.867 197.513 776.361 197.22C775.854 196.927 775.307 196.78 774.721 196.78C774.134 196.78 773.587 196.927 773.081 197.22C772.574 197.5 772.161 197.92 771.841 198.48C771.534 199.027 771.381 199.68 771.381 200.44C771.381 201.2 771.534 201.867 771.841 202.44C772.161 203.013 772.574 203.453 773.081 203.76C773.601 204.053 774.147 204.2 774.721 204.2C775.307 204.2 775.854 204.053 776.361 203.76C776.867 203.467 777.274 203.04 777.581 202.48C777.901 201.907 778.061 201.24 778.061 200.48ZM782.595 200.48C782.595 199.347 782.822 198.353 783.275 197.5C783.742 196.633 784.382 195.967 785.195 195.5C786.009 195.033 786.942 194.8 787.995 194.8C789.329 194.8 790.429 195.12 791.295 195.76C792.175 196.387 792.769 197.287 793.075 198.46H790.615C790.415 197.913 790.095 197.487 789.655 197.18C789.215 196.873 788.662 196.72 787.995 196.72C787.062 196.72 786.315 197.053 785.755 197.72C785.209 198.373 784.935 199.293 784.935 200.48C784.935 201.667 785.209 202.593 785.755 203.26C786.315 203.927 787.062 204.26 787.995 204.26C789.315 204.26 790.189 203.68 790.615 202.52H793.075C792.755 203.64 792.155 204.533 791.275 205.2C790.395 205.853 789.302 206.18 787.995 206.18C786.942 206.18 786.009 205.947 785.195 205.48C784.382 205 783.742 204.333 783.275 203.48C782.822 202.613 782.595 201.613 782.595 200.48ZM798.008 196.84V202.94C798.008 203.353 798.101 203.653 798.288 203.84C798.488 204.013 798.821 204.1 799.288 204.1H800.688V206H798.888C797.861 206 797.074 205.76 796.528 205.28C795.981 204.8 795.708 204.02 795.708 202.94V196.84H794.408V194.98H795.708V192.24H798.008V194.98H800.688V196.84H798.008ZM812.769 194.98V206H810.489V204.7C810.129 205.153 809.656 205.513 809.069 205.78C808.496 206.033 807.882 206.16 807.229 206.16C806.362 206.16 805.582 205.98 804.889 205.62C804.209 205.26 803.669 204.727 803.269 204.02C802.882 203.313 802.689 202.46 802.689 201.46V194.98H804.949V201.12C804.949 202.107 805.196 202.867 805.689 203.4C806.182 203.92 806.856 204.18 807.709 204.18C808.562 204.18 809.236 203.92 809.729 203.4C810.236 202.867 810.489 202.107 810.489 201.12V194.98H812.769ZM815.017 200.44C815.017 199.333 815.244 198.353 815.697 197.5C816.164 196.647 816.791 195.987 817.577 195.52C818.377 195.04 819.257 194.8 820.217 194.8C821.084 194.8 821.837 194.973 822.477 195.32C823.131 195.653 823.651 196.073 824.037 196.58V194.98H826.337V206H824.037V204.36C823.651 204.88 823.124 205.313 822.457 205.66C821.791 206.007 821.031 206.18 820.177 206.18C819.231 206.18 818.364 205.94 817.577 205.46C816.791 204.967 816.164 204.287 815.697 203.42C815.244 202.54 815.017 201.547 815.017 200.44ZM824.037 200.48C824.037 199.72 823.877 199.06 823.557 198.5C823.251 197.94 822.844 197.513 822.337 197.22C821.831 196.927 821.284 196.78 820.697 196.78C820.111 196.78 819.564 196.927 819.057 197.22C818.551 197.5 818.137 197.92 817.817 198.48C817.511 199.027 817.357 199.68 817.357 200.44C817.357 201.2 817.511 201.867 817.817 202.44C818.137 203.013 818.551 203.453 819.057 203.76C819.577 204.053 820.124 204.2 820.697 204.2C821.284 204.2 821.831 204.053 822.337 203.76C822.844 203.467 823.251 203.04 823.557 202.48C823.877 201.907 824.037 201.24 824.037 200.48ZM831.612 191.2V206H829.332V191.2H831.612ZM849.861 196.1C849.501 195.407 849.001 194.887 848.361 194.54C847.721 194.18 846.981 194 846.141 194C845.221 194 844.401 194.207 843.681 194.62C842.961 195.033 842.394 195.62 841.981 196.38C841.581 197.14 841.381 198.02 841.381 199.02C841.381 200.02 841.581 200.907 841.981 201.68C842.394 202.44 842.961 203.027 843.681 203.44C844.401 203.853 845.221 204.06 846.141 204.06C847.381 204.06 848.387 203.713 849.161 203.02C849.934 202.327 850.407 201.387 850.581 200.2H845.361V198.38H853.021V200.16C852.874 201.24 852.487 202.233 851.861 203.14C851.247 204.047 850.441 204.773 849.441 205.32C848.454 205.853 847.354 206.12 846.141 206.12C844.834 206.12 843.641 205.82 842.561 205.22C841.481 204.607 840.621 203.76 839.981 202.68C839.354 201.6 839.041 200.38 839.041 199.02C839.041 197.66 839.354 196.44 839.981 195.36C840.621 194.28 841.481 193.44 842.561 192.84C843.654 192.227 844.847 191.92 846.141 191.92C847.621 191.92 848.934 192.287 850.081 193.02C851.241 193.74 852.081 194.767 852.601 196.1H849.861ZM865.37 200.22C865.37 200.633 865.343 201.007 865.29 201.34H856.87C856.936 202.22 857.263 202.927 857.85 203.46C858.436 203.993 859.156 204.26 860.01 204.26C861.236 204.26 862.103 203.747 862.61 202.72H865.07C864.736 203.733 864.13 204.567 863.25 205.22C862.383 205.86 861.303 206.18 860.01 206.18C858.956 206.18 858.01 205.947 857.17 205.48C856.343 205 855.69 204.333 855.21 203.48C854.743 202.613 854.51 201.613 854.51 200.48C854.51 199.347 854.736 198.353 855.19 197.5C855.656 196.633 856.303 195.967 857.13 195.5C857.97 195.033 858.93 194.8 860.01 194.8C861.05 194.8 861.976 195.027 862.79 195.48C863.603 195.933 864.236 196.573 864.69 197.4C865.143 198.213 865.37 199.153 865.37 200.22ZM862.99 199.5C862.976 198.66 862.676 197.987 862.09 197.48C861.503 196.973 860.776 196.72 859.91 196.72C859.123 196.72 858.45 196.973 857.89 197.48C857.33 197.973 856.996 198.647 856.89 199.5H862.99ZM873.173 194.8C874.04 194.8 874.813 194.98 875.493 195.34C876.187 195.7 876.727 196.233 877.113 196.94C877.5 197.647 877.693 198.5 877.693 199.5V206H875.433V199.84C875.433 198.853 875.187 198.1 874.693 197.58C874.2 197.047 873.527 196.78 872.673 196.78C871.82 196.78 871.14 197.047 870.633 197.58C870.14 198.1 869.893 198.853 869.893 199.84V206H867.613V194.98H869.893V196.24C870.267 195.787 870.74 195.433 871.313 195.18C871.9 194.927 872.52 194.8 873.173 194.8ZM890.702 200.22C890.702 200.633 890.675 201.007 890.622 201.34H882.202C882.268 202.22 882.595 202.927 883.182 203.46C883.768 203.993 884.488 204.26 885.342 204.26C886.568 204.26 887.435 203.747 887.942 202.72H890.402C890.068 203.733 889.462 204.567 888.582 205.22C887.715 205.86 886.635 206.18 885.342 206.18C884.288 206.18 883.342 205.947 882.502 205.48C881.675 205 881.022 204.333 880.542 203.48C880.075 202.613 879.842 201.613 879.842 200.48C879.842 199.347 880.068 198.353 880.522 197.5C880.988 196.633 881.635 195.967 882.462 195.5C883.302 195.033 884.262 194.8 885.342 194.8C886.382 194.8 887.308 195.027 888.122 195.48C888.935 195.933 889.568 196.573 890.022 197.4C890.475 198.213 890.702 199.153 890.702 200.22ZM888.322 199.5C888.308 198.66 888.008 197.987 887.422 197.48C886.835 196.973 886.108 196.72 885.242 196.72C884.455 196.72 883.782 196.973 883.222 197.48C882.662 197.973 882.328 198.647 882.222 199.5H888.322ZM895.225 196.58C895.559 196.02 895.999 195.587 896.545 195.28C897.105 194.96 897.765 194.8 898.525 194.8V197.16H897.945C897.052 197.16 896.372 197.387 895.905 197.84C895.452 198.293 895.225 199.08 895.225 200.2V206H892.945V194.98H895.225V196.58ZM899.861 200.44C899.861 199.333 900.088 198.353 900.541 197.5C901.008 196.647 901.634 195.987 902.421 195.52C903.221 195.04 904.101 194.8 905.061 194.8C905.928 194.8 906.681 194.973 907.321 195.32C907.974 195.653 908.494 196.073 908.881 196.58V194.98H911.181V206H908.881V204.36C908.494 204.88 907.968 205.313 907.301 205.66C906.634 206.007 905.874 206.18 905.021 206.18C904.074 206.18 903.208 205.94 902.421 205.46C901.634 204.967 901.008 204.287 900.541 203.42C900.088 202.54 899.861 201.547 899.861 200.44ZM908.881 200.48C908.881 199.72 908.721 199.06 908.401 198.5C908.094 197.94 907.688 197.513 907.181 197.22C906.674 196.927 906.128 196.78 905.541 196.78C904.954 196.78 904.408 196.927 903.901 197.22C903.394 197.5 902.981 197.92 902.661 198.48C902.354 199.027 902.201 199.68 902.201 200.44C902.201 201.2 902.354 201.867 902.661 202.44C902.981 203.013 903.394 203.453 903.901 203.76C904.421 204.053 904.968 204.2 905.541 204.2C906.128 204.2 906.674 204.053 907.181 203.76C907.688 203.467 908.094 203.04 908.401 202.48C908.721 201.907 908.881 201.24 908.881 200.48ZM916.836 196.84V202.94C916.836 203.353 916.929 203.653 917.116 203.84C917.316 204.013 917.649 204.1 918.116 204.1H919.516V206H917.716C916.689 206 915.902 205.76 915.356 205.28C914.809 204.8 914.536 204.02 914.536 202.94V196.84H913.236V194.98H914.536V192.24H916.836V194.98H919.516V196.84H916.836ZM926.397 206.18C925.357 206.18 924.417 205.947 923.577 205.48C922.737 205 922.077 204.333 921.597 203.48C921.117 202.613 920.877 201.613 920.877 200.48C920.877 199.36 921.124 198.367 921.617 197.5C922.111 196.633 922.784 195.967 923.637 195.5C924.491 195.033 925.444 194.8 926.497 194.8C927.551 194.8 928.504 195.033 929.357 195.5C930.211 195.967 930.884 196.633 931.377 197.5C931.871 198.367 932.117 199.36 932.117 200.48C932.117 201.6 931.864 202.593 931.357 203.46C930.851 204.327 930.157 205 929.277 205.48C928.411 205.947 927.451 206.18 926.397 206.18ZM926.397 204.2C926.984 204.2 927.531 204.06 928.037 203.78C928.557 203.5 928.977 203.08 929.297 202.52C929.617 201.96 929.777 201.28 929.777 200.48C929.777 199.68 929.624 199.007 929.317 198.46C929.011 197.9 928.604 197.48 928.097 197.2C927.591 196.92 927.044 196.78 926.457 196.78C925.871 196.78 925.324 196.92 924.817 197.2C924.324 197.48 923.931 197.9 923.637 198.46C923.344 199.007 923.197 199.68 923.197 200.48C923.197 201.667 923.497 202.587 924.097 203.24C924.711 203.88 925.477 204.2 926.397 204.2ZM936.651 196.58C936.984 196.02 937.424 195.587 937.971 195.28C938.531 194.96 939.191 194.8 939.951 194.8V197.16H939.371C938.478 197.16 937.798 197.387 937.331 197.84C936.878 198.293 936.651 199.08 936.651 200.2V206H934.371V194.98H936.651V196.58Z" fill="white"/>
<path d="M689.68 272.1V273.96H683.78V278.06H688.38V279.92H683.78V286H681.5V272.1H689.68ZM691.033 280.44C691.033 279.333 691.26 278.353 691.713 277.5C692.18 276.647 692.806 275.987 693.593 275.52C694.393 275.04 695.273 274.8 696.233 274.8C697.1 274.8 697.853 274.973 698.493 275.32C699.146 275.653 699.666 276.073 700.053 276.58V274.98H702.353V286H700.053V284.36C699.666 284.88 699.14 285.313 698.473 285.66C697.806 286.007 697.046 286.18 696.193 286.18C695.246 286.18 694.38 285.94 693.593 285.46C692.806 284.967 692.18 284.287 691.713 283.42C691.26 282.54 691.033 281.547 691.033 280.44ZM700.053 280.48C700.053 279.72 699.893 279.06 699.573 278.5C699.266 277.94 698.86 277.513 698.353 277.22C697.846 276.927 697.3 276.78 696.713 276.78C696.126 276.78 695.58 276.927 695.073 277.22C694.566 277.5 694.153 277.92 693.833 278.48C693.526 279.027 693.373 279.68 693.373 280.44C693.373 281.2 693.526 281.867 693.833 282.44C694.153 283.013 694.566 283.453 695.073 283.76C695.593 284.053 696.14 284.2 696.713 284.2C697.3 284.2 697.846 284.053 698.353 283.76C698.86 283.467 699.266 283.04 699.573 282.48C699.893 281.907 700.053 281.24 700.053 280.48ZM706.508 273.52C706.094 273.52 705.748 273.38 705.468 273.1C705.188 272.82 705.048 272.473 705.048 272.06C705.048 271.647 705.188 271.3 705.468 271.02C705.748 270.74 706.094 270.6 706.508 270.6C706.908 270.6 707.248 270.74 707.528 271.02C707.808 271.3 707.948 271.647 707.948 272.06C707.948 272.473 707.808 272.82 707.528 273.1C707.248 273.38 706.908 273.52 706.508 273.52ZM707.628 274.98V286H705.348V274.98H707.628ZM712.901 276.58C713.234 276.02 713.674 275.587 714.221 275.28C714.781 274.96 715.441 274.8 716.201 274.8V277.16H715.621C714.728 277.16 714.048 277.387 713.581 277.84C713.128 278.293 712.901 279.08 712.901 280.2V286H710.621V274.98H712.901V276.58ZM723.857 274.8C724.724 274.8 725.497 274.98 726.177 275.34C726.87 275.7 727.41 276.233 727.797 276.94C728.184 277.647 728.377 278.5 728.377 279.5V286H726.117V279.84C726.117 278.853 725.87 278.1 725.377 277.58C724.884 277.047 724.21 276.78 723.357 276.78C722.504 276.78 721.824 277.047 721.317 277.58C720.824 278.1 720.577 278.853 720.577 279.84V286H718.297V274.98H720.577V276.24C720.95 275.787 721.424 275.433 721.997 275.18C722.584 274.927 723.204 274.8 723.857 274.8ZM741.385 280.22C741.385 280.633 741.358 281.007 741.305 281.34H732.885C732.952 282.22 733.278 282.927 733.865 283.46C734.452 283.993 735.172 284.26 736.025 284.26C737.252 284.26 738.118 283.747 738.625 282.72H741.085C740.752 283.733 740.145 284.567 739.265 285.22C738.398 285.86 737.318 286.18 736.025 286.18C734.972 286.18 734.025 285.947 733.185 285.48C732.358 285 731.705 284.333 731.225 283.48C730.758 282.613 730.525 281.613 730.525 280.48C730.525 279.347 730.752 278.353 731.205 277.5C731.672 276.633 732.318 275.967 733.145 275.5C733.985 275.033 734.945 274.8 736.025 274.8C737.065 274.8 737.992 275.027 738.805 275.48C739.618 275.933 740.252 276.573 740.705 277.4C741.158 278.213 741.385 279.153 741.385 280.22ZM739.005 279.5C738.992 278.66 738.692 277.987 738.105 277.48C737.518 276.973 736.792 276.72 735.925 276.72C735.138 276.72 734.465 276.973 733.905 277.48C733.345 277.973 733.012 278.647 732.905 279.5H739.005ZM747.629 286.18C746.762 286.18 745.982 286.027 745.289 285.72C744.609 285.4 744.069 284.973 743.669 284.44C743.269 283.893 743.056 283.287 743.029 282.62H745.389C745.429 283.087 745.649 283.48 746.049 283.8C746.462 284.107 746.976 284.26 747.589 284.26C748.229 284.26 748.722 284.14 749.069 283.9C749.429 283.647 749.609 283.327 749.609 282.94C749.609 282.527 749.409 282.22 749.009 282.02C748.622 281.82 748.002 281.6 747.149 281.36C746.322 281.133 745.649 280.913 745.129 280.7C744.609 280.487 744.156 280.16 743.769 279.72C743.396 279.28 743.209 278.7 743.209 277.98C743.209 277.393 743.382 276.86 743.729 276.38C744.076 275.887 744.569 275.5 745.209 275.22C745.862 274.94 746.609 274.8 747.449 274.8C748.702 274.8 749.709 275.12 750.469 275.76C751.242 276.387 751.656 277.247 751.709 278.34H749.429C749.389 277.847 749.189 277.453 748.829 277.16C748.469 276.867 747.982 276.72 747.369 276.72C746.769 276.72 746.309 276.833 745.989 277.06C745.669 277.287 745.509 277.587 745.509 277.96C745.509 278.253 745.616 278.5 745.829 278.7C746.042 278.9 746.302 279.06 746.609 279.18C746.916 279.287 747.369 279.427 747.969 279.6C748.769 279.813 749.422 280.033 749.929 280.26C750.449 280.473 750.896 280.793 751.269 281.22C751.642 281.647 751.836 282.213 751.849 282.92C751.849 283.547 751.676 284.107 751.329 284.6C750.982 285.093 750.489 285.48 749.849 285.76C749.222 286.04 748.482 286.18 747.629 286.18ZM758.313 286.18C757.446 286.18 756.666 286.027 755.973 285.72C755.293 285.4 754.753 284.973 754.353 284.44C753.953 283.893 753.739 283.287 753.713 282.62H756.073C756.113 283.087 756.333 283.48 756.733 283.8C757.146 284.107 757.659 284.26 758.273 284.26C758.913 284.26 759.406 284.14 759.753 283.9C760.113 283.647 760.293 283.327 760.293 282.94C760.293 282.527 760.093 282.22 759.693 282.02C759.306 281.82 758.686 281.6 757.833 281.36C757.006 281.133 756.333 280.913 755.813 280.7C755.293 280.487 754.839 280.16 754.453 279.72C754.079 279.28 753.893 278.7 753.893 277.98C753.893 277.393 754.066 276.86 754.413 276.38C754.759 275.887 755.253 275.5 755.893 275.22C756.546 274.94 757.293 274.8 758.133 274.8C759.386 274.8 760.393 275.12 761.153 275.76C761.926 276.387 762.339 277.247 762.393 278.34H760.113C760.073 277.847 759.873 277.453 759.513 277.16C759.153 276.867 758.666 276.72 758.053 276.72C757.453 276.72 756.993 276.833 756.673 277.06C756.353 277.287 756.193 277.587 756.193 277.96C756.193 278.253 756.299 278.5 756.513 278.7C756.726 278.9 756.986 279.06 757.293 279.18C757.599 279.287 758.053 279.427 758.653 279.6C759.453 279.813 760.106 280.033 760.613 280.26C761.133 280.473 761.579 280.793 761.953 281.22C762.326 281.647 762.519 282.213 762.533 282.92C762.533 283.547 762.359 284.107 762.013 284.6C761.666 285.093 761.173 285.48 760.533 285.76C759.906 286.04 759.166 286.18 758.313 286.18ZM782.171 272.1L776.951 286H774.311L769.071 272.1H771.511L775.631 283.66L779.771 272.1H782.171ZM783.318 280.44C783.318 279.333 783.545 278.353 783.998 277.5C784.465 276.647 785.091 275.987 785.878 275.52C786.678 275.04 787.558 274.8 788.518 274.8C789.385 274.8 790.138 274.973 790.778 275.32C791.431 275.653 791.951 276.073 792.338 276.58V274.98H794.638V286H792.338V284.36C791.951 284.88 791.425 285.313 790.758 285.66C790.091 286.007 789.331 286.18 788.478 286.18C787.531 286.18 786.665 285.94 785.878 285.46C785.091 284.967 784.465 284.287 783.998 283.42C783.545 282.54 783.318 281.547 783.318 280.44ZM792.338 280.48C792.338 279.72 792.178 279.06 791.858 278.5C791.551 277.94 791.145 277.513 790.638 277.22C790.131 276.927 789.585 276.78 788.998 276.78C788.411 276.78 787.865 276.927 787.358 277.22C786.851 277.5 786.438 277.92 786.118 278.48C785.811 279.027 785.658 279.68 785.658 280.44C785.658 281.2 785.811 281.867 786.118 282.44C786.438 283.013 786.851 283.453 787.358 283.76C787.878 284.053 788.425 284.2 788.998 284.2C789.585 284.2 790.131 284.053 790.638 283.76C791.145 283.467 791.551 283.04 791.858 282.48C792.178 281.907 792.338 281.24 792.338 280.48ZM799.913 271.2V286H797.633V271.2H799.913ZM804.066 273.52C803.653 273.52 803.306 273.38 803.026 273.1C802.746 272.82 802.606 272.473 802.606 272.06C802.606 271.647 802.746 271.3 803.026 271.02C803.306 270.74 803.653 270.6 804.066 270.6C804.466 270.6 804.806 270.74 805.086 271.02C805.366 271.3 805.506 271.647 805.506 272.06C805.506 272.473 805.366 272.82 805.086 273.1C804.806 273.38 804.466 273.52 804.066 273.52ZM805.186 274.98V286H802.906V274.98H805.186ZM807.42 280.44C807.42 279.333 807.646 278.353 808.1 277.5C808.566 276.647 809.193 275.987 809.98 275.52C810.78 275.04 811.666 274.8 812.64 274.8C813.36 274.8 814.066 274.96 814.76 275.28C815.466 275.587 816.026 276 816.44 276.52V271.2H818.74V286H816.44V284.34C816.066 284.873 815.546 285.313 814.88 285.66C814.226 286.007 813.473 286.18 812.62 286.18C811.66 286.18 810.78 285.94 809.98 285.46C809.193 284.967 808.566 284.287 808.1 283.42C807.646 282.54 807.42 281.547 807.42 280.44ZM816.44 280.48C816.44 279.72 816.28 279.06 815.96 278.5C815.653 277.94 815.246 277.513 814.74 277.22C814.233 276.927 813.686 276.78 813.1 276.78C812.513 276.78 811.966 276.927 811.46 277.22C810.953 277.5 810.54 277.92 810.22 278.48C809.913 279.027 809.76 279.68 809.76 280.44C809.76 281.2 809.913 281.867 810.22 282.44C810.54 283.013 810.953 283.453 811.46 283.76C811.98 284.053 812.526 284.2 813.1 284.2C813.686 284.2 814.233 284.053 814.74 283.76C815.246 283.467 815.653 283.04 815.96 282.48C816.28 281.907 816.44 281.24 816.44 280.48ZM820.974 280.44C820.974 279.333 821.201 278.353 821.654 277.5C822.121 276.647 822.748 275.987 823.534 275.52C824.334 275.04 825.214 274.8 826.174 274.8C827.041 274.8 827.794 274.973 828.434 275.32C829.088 275.653 829.608 276.073 829.994 276.58V274.98H832.294V286H829.994V284.36C829.608 284.88 829.081 285.313 828.414 285.66C827.748 286.007 826.988 286.18 826.134 286.18C825.188 286.18 824.321 285.94 823.534 285.46C822.748 284.967 822.121 284.287 821.654 283.42C821.201 282.54 820.974 281.547 820.974 280.44ZM829.994 280.48C829.994 279.72 829.834 279.06 829.514 278.5C829.208 277.94 828.801 277.513 828.294 277.22C827.788 276.927 827.241 276.78 826.654 276.78C826.068 276.78 825.521 276.927 825.014 277.22C824.508 277.5 824.094 277.92 823.774 278.48C823.468 279.027 823.314 279.68 823.314 280.44C823.314 281.2 823.468 281.867 823.774 282.44C824.094 283.013 824.508 283.453 825.014 283.76C825.534 284.053 826.081 284.2 826.654 284.2C827.241 284.2 827.788 284.053 828.294 283.76C828.801 283.467 829.208 283.04 829.514 282.48C829.834 281.907 829.994 281.24 829.994 280.48ZM837.949 276.84V282.94C837.949 283.353 838.042 283.653 838.229 283.84C838.429 284.013 838.762 284.1 839.229 284.1H840.629V286H838.829C837.802 286 837.016 285.76 836.469 285.28C835.922 284.8 835.649 284.02 835.649 282.94V276.84H834.349V274.98H835.649V272.24H837.949V274.98H840.629V276.84H837.949ZM843.89 273.52C843.477 273.52 843.13 273.38 842.85 273.1C842.57 272.82 842.43 272.473 842.43 272.06C842.43 271.647 842.57 271.3 842.85 271.02C843.13 270.74 843.477 270.6 843.89 270.6C844.29 270.6 844.63 270.74 844.91 271.02C845.19 271.3 845.33 271.647 845.33 272.06C845.33 272.473 845.19 272.82 844.91 273.1C844.63 273.38 844.29 273.52 843.89 273.52ZM845.01 274.98V286H842.73V274.98H845.01ZM852.784 286.18C851.744 286.18 850.804 285.947 849.964 285.48C849.124 285 848.464 284.333 847.984 283.48C847.504 282.613 847.264 281.613 847.264 280.48C847.264 279.36 847.511 278.367 848.004 277.5C848.497 276.633 849.171 275.967 850.024 275.5C850.877 275.033 851.831 274.8 852.884 274.8C853.937 274.8 854.891 275.033 855.744 275.5C856.597 275.967 857.271 276.633 857.764 277.5C858.257 278.367 858.504 279.36 858.504 280.48C858.504 281.6 858.251 282.593 857.744 283.46C857.237 284.327 856.544 285 855.664 285.48C854.797 285.947 853.837 286.18 852.784 286.18ZM852.784 284.2C853.371 284.2 853.917 284.06 854.424 283.78C854.944 283.5 855.364 283.08 855.684 282.52C856.004 281.96 856.164 281.28 856.164 280.48C856.164 279.68 856.011 279.007 855.704 278.46C855.397 277.9 854.991 277.48 854.484 277.2C853.977 276.92 853.431 276.78 852.844 276.78C852.257 276.78 851.711 276.92 851.204 277.2C850.711 277.48 850.317 277.9 850.024 278.46C849.731 279.007 849.584 279.68 849.584 280.48C849.584 281.667 849.884 282.587 850.484 283.24C851.097 283.88 851.864 284.2 852.784 284.2ZM866.318 274.8C867.184 274.8 867.958 274.98 868.638 275.34C869.331 275.7 869.871 276.233 870.258 276.94C870.644 277.647 870.838 278.5 870.838 279.5V286H868.578V279.84C868.578 278.853 868.331 278.1 867.838 277.58C867.344 277.047 866.671 276.78 865.818 276.78C864.964 276.78 864.284 277.047 863.778 277.58C863.284 278.1 863.038 278.853 863.038 279.84V286H860.758V274.98H863.038V276.24C863.411 275.787 863.884 275.433 864.458 275.18C865.044 274.927 865.664 274.8 866.318 274.8Z" fill="white"/>
<path d="M686.04 352.1C687.52 352.1 688.813 352.387 689.92 352.96C691.04 353.52 691.9 354.333 692.5 355.4C693.113 356.453 693.42 357.687 693.42 359.1C693.42 360.513 693.113 361.74 692.5 362.78C691.9 363.82 691.04 364.62 689.92 365.18C688.813 365.727 687.52 366 686.04 366H681.5V352.1H686.04ZM686.04 364.14C687.667 364.14 688.913 363.7 689.78 362.82C690.647 361.94 691.08 360.7 691.08 359.1C691.08 357.487 690.647 356.227 689.78 355.32C688.913 354.413 687.667 353.96 686.04 353.96H683.78V364.14H686.04ZM694.92 360.44C694.92 359.333 695.146 358.353 695.6 357.5C696.066 356.647 696.693 355.987 697.48 355.52C698.28 355.04 699.16 354.8 700.12 354.8C700.986 354.8 701.74 354.973 702.38 355.32C703.033 355.653 703.553 356.073 703.94 356.58V354.98H706.24V366H703.94V364.36C703.553 364.88 703.026 365.313 702.36 365.66C701.693 366.007 700.933 366.18 700.08 366.18C699.133 366.18 698.266 365.94 697.48 365.46C696.693 364.967 696.066 364.287 695.6 363.42C695.146 362.54 694.92 361.547 694.92 360.44ZM703.94 360.48C703.94 359.72 703.78 359.06 703.46 358.5C703.153 357.94 702.746 357.513 702.24 357.22C701.733 356.927 701.186 356.78 700.6 356.78C700.013 356.78 699.466 356.927 698.96 357.22C698.453 357.5 698.04 357.92 697.72 358.48C697.413 359.027 697.26 359.68 697.26 360.44C697.26 361.2 697.413 361.867 697.72 362.44C698.04 363.013 698.453 363.453 698.96 363.76C699.48 364.053 700.026 364.2 700.6 364.2C701.186 364.2 701.733 364.053 702.24 363.76C702.746 363.467 703.153 363.04 703.46 362.48C703.78 361.907 703.94 361.24 703.94 360.48ZM711.894 356.84V362.94C711.894 363.353 711.988 363.653 712.174 363.84C712.374 364.013 712.708 364.1 713.174 364.1H714.574V366H712.774C711.748 366 710.961 365.76 710.414 365.28C709.868 364.8 709.594 364.02 709.594 362.94V356.84H708.294V354.98H709.594V352.24H711.894V354.98H714.574V356.84H711.894ZM715.916 360.44C715.916 359.333 716.142 358.353 716.596 357.5C717.062 356.647 717.689 355.987 718.476 355.52C719.276 355.04 720.156 354.8 721.116 354.8C721.982 354.8 722.736 354.973 723.376 355.32C724.029 355.653 724.549 356.073 724.936 356.58V354.98H727.236V366H724.936V364.36C724.549 364.88 724.022 365.313 723.356 365.66C722.689 366.007 721.929 366.18 721.076 366.18C720.129 366.18 719.262 365.94 718.476 365.46C717.689 364.967 717.062 364.287 716.596 363.42C716.142 362.54 715.916 361.547 715.916 360.44ZM724.936 360.48C724.936 359.72 724.776 359.06 724.456 358.5C724.149 357.94 723.742 357.513 723.236 357.22C722.729 356.927 722.182 356.78 721.596 356.78C721.009 356.78 720.462 356.927 719.956 357.22C719.449 357.5 719.036 357.92 718.716 358.48C718.409 359.027 718.256 359.68 718.256 360.44C718.256 361.2 718.409 361.867 718.716 362.44C719.036 363.013 719.449 363.453 719.956 363.76C720.476 364.053 721.022 364.2 721.596 364.2C722.182 364.2 722.729 364.053 723.236 363.76C723.742 363.467 724.149 363.04 724.456 362.48C724.776 361.907 724.936 361.24 724.936 360.48ZM734.666 359.02C734.666 357.66 734.979 356.44 735.606 355.36C736.246 354.28 737.106 353.44 738.186 352.84C739.279 352.227 740.472 351.92 741.766 351.92C743.246 351.92 744.559 352.287 745.706 353.02C746.866 353.74 747.706 354.767 748.226 356.1H745.486C745.126 355.367 744.626 354.82 743.986 354.46C743.346 354.1 742.606 353.92 741.766 353.92C740.846 353.92 740.026 354.127 739.306 354.54C738.586 354.953 738.019 355.547 737.606 356.32C737.206 357.093 737.006 357.993 737.006 359.02C737.006 360.047 737.206 360.947 737.606 361.72C738.019 362.493 738.586 363.093 739.306 363.52C740.026 363.933 740.846 364.14 741.766 364.14C742.606 364.14 743.346 363.96 743.986 363.6C744.626 363.24 745.126 362.693 745.486 361.96H748.226C747.706 363.293 746.866 364.32 745.706 365.04C744.559 365.76 743.246 366.12 741.766 366.12C740.459 366.12 739.266 365.82 738.186 365.22C737.106 364.607 736.246 363.76 735.606 362.68C734.979 361.6 734.666 360.38 734.666 359.02ZM755.675 366.18C754.635 366.18 753.695 365.947 752.855 365.48C752.015 365 751.355 364.333 750.875 363.48C750.395 362.613 750.155 361.613 750.155 360.48C750.155 359.36 750.401 358.367 750.895 357.5C751.388 356.633 752.061 355.967 752.915 355.5C753.768 355.033 754.721 354.8 755.775 354.8C756.828 354.8 757.781 355.033 758.635 355.5C759.488 355.967 760.161 356.633 760.655 357.5C761.148 358.367 761.395 359.36 761.395 360.48C761.395 361.6 761.141 362.593 760.635 363.46C760.128 364.327 759.435 365 758.555 365.48C757.688 365.947 756.728 366.18 755.675 366.18ZM755.675 364.2C756.261 364.2 756.808 364.06 757.315 363.78C757.835 363.5 758.255 363.08 758.575 362.52C758.895 361.96 759.055 361.28 759.055 360.48C759.055 359.68 758.901 359.007 758.595 358.46C758.288 357.9 757.881 357.48 757.375 357.2C756.868 356.92 756.321 356.78 755.735 356.78C755.148 356.78 754.601 356.92 754.095 357.2C753.601 357.48 753.208 357.9 752.915 358.46C752.621 359.007 752.475 359.68 752.475 360.48C752.475 361.667 752.775 362.587 753.375 363.24C753.988 363.88 754.755 364.2 755.675 364.2ZM776.988 354.8C777.855 354.8 778.628 354.98 779.308 355.34C780.002 355.7 780.542 356.233 780.928 356.94C781.328 357.647 781.528 358.5 781.528 359.5V366H779.268V359.84C779.268 358.853 779.022 358.1 778.528 357.58C778.035 357.047 777.362 356.78 776.508 356.78C775.655 356.78 774.975 357.047 774.468 357.58C773.975 358.1 773.728 358.853 773.728 359.84V366H771.468V359.84C771.468 358.853 771.222 358.1 770.728 357.58C770.235 357.047 769.562 356.78 768.708 356.78C767.855 356.78 767.175 357.047 766.668 357.58C766.175 358.1 765.928 358.853 765.928 359.84V366H763.648V354.98H765.928V356.24C766.302 355.787 766.775 355.433 767.348 355.18C767.922 354.927 768.535 354.8 769.188 354.8C770.068 354.8 770.855 354.987 771.548 355.36C772.242 355.733 772.775 356.273 773.148 356.98C773.482 356.313 774.002 355.787 774.708 355.4C775.415 355 776.175 354.8 776.988 354.8ZM786.71 356.6C787.096 356.093 787.623 355.667 788.29 355.32C788.956 354.973 789.71 354.8 790.55 354.8C791.51 354.8 792.383 355.04 793.17 355.52C793.97 355.987 794.596 356.647 795.05 357.5C795.503 358.353 795.73 359.333 795.73 360.44C795.73 361.547 795.503 362.54 795.05 363.42C794.596 364.287 793.97 364.967 793.17 365.46C792.383 365.94 791.51 366.18 790.55 366.18C789.71 366.18 788.963 366.013 788.31 365.68C787.656 365.333 787.123 364.907 786.71 364.4V371.24H784.43V354.98H786.71V356.6ZM793.41 360.44C793.41 359.68 793.25 359.027 792.93 358.48C792.623 357.92 792.21 357.5 791.69 357.22C791.183 356.927 790.636 356.78 790.05 356.78C789.476 356.78 788.93 356.927 788.41 357.22C787.903 357.513 787.49 357.94 787.17 358.5C786.863 359.06 786.71 359.72 786.71 360.48C786.71 361.24 786.863 361.907 787.17 362.48C787.49 363.04 787.903 363.467 788.41 363.76C788.93 364.053 789.476 364.2 790.05 364.2C790.636 364.2 791.183 364.053 791.69 363.76C792.21 363.453 792.623 363.013 792.93 362.44C793.25 361.867 793.41 361.2 793.41 360.44ZM800.264 351.2V366H797.984V351.2H800.264ZM813.358 360.22C813.358 360.633 813.331 361.007 813.278 361.34H804.858C804.924 362.22 805.251 362.927 805.838 363.46C806.424 363.993 807.144 364.26 807.998 364.26C809.224 364.26 810.091 363.747 810.598 362.72H813.058C812.724 363.733 812.118 364.567 811.238 365.22C810.371 365.86 809.291 366.18 807.998 366.18C806.944 366.18 805.998 365.947 805.158 365.48C804.331 365 803.678 364.333 803.198 363.48C802.731 362.613 802.498 361.613 802.498 360.48C802.498 359.347 802.724 358.353 803.178 357.5C803.644 356.633 804.291 355.967 805.118 355.5C805.958 355.033 806.918 354.8 807.998 354.8C809.038 354.8 809.964 355.027 810.778 355.48C811.591 355.933 812.224 356.573 812.678 357.4C813.131 358.213 813.358 359.153 813.358 360.22ZM810.978 359.5C810.964 358.66 810.664 357.987 810.078 357.48C809.491 356.973 808.764 356.72 807.898 356.72C807.111 356.72 806.438 356.973 805.878 357.48C805.318 357.973 804.984 358.647 804.878 359.5H810.978ZM818.262 356.84V362.94C818.262 363.353 818.355 363.653 818.542 363.84C818.742 364.013 819.075 364.1 819.542 364.1H820.942V366H819.142C818.115 366 817.328 365.76 816.782 365.28C816.235 364.8 815.962 364.02 815.962 362.94V356.84H814.662V354.98H815.962V352.24H818.262V354.98H820.942V356.84H818.262ZM833.143 360.22C833.143 360.633 833.116 361.007 833.063 361.34H824.643C824.71 362.22 825.036 362.927 825.623 363.46C826.21 363.993 826.93 364.26 827.783 364.26C829.01 364.26 829.876 363.747 830.383 362.72H832.843C832.51 363.733 831.903 364.567 831.023 365.22C830.156 365.86 829.076 366.18 827.783 366.18C826.73 366.18 825.783 365.947 824.943 365.48C824.116 365 823.463 364.333 822.983 363.48C822.516 362.613 822.283 361.613 822.283 360.48C822.283 359.347 822.51 358.353 822.963 357.5C823.43 356.633 824.076 355.967 824.903 355.5C825.743 355.033 826.703 354.8 827.783 354.8C828.823 354.8 829.75 355.027 830.563 355.48C831.376 355.933 832.01 356.573 832.463 357.4C832.916 358.213 833.143 359.153 833.143 360.22ZM830.763 359.5C830.75 358.66 830.45 357.987 829.863 357.48C829.276 356.973 828.55 356.72 827.683 356.72C826.896 356.72 826.223 356.973 825.663 357.48C825.103 357.973 824.77 358.647 824.663 359.5H830.763ZM840.947 354.8C841.813 354.8 842.587 354.98 843.267 355.34C843.96 355.7 844.5 356.233 844.887 356.94C845.273 357.647 845.467 358.5 845.467 359.5V366H843.207V359.84C843.207 358.853 842.96 358.1 842.467 357.58C841.973 357.047 841.3 356.78 840.447 356.78C839.593 356.78 838.913 357.047 838.407 357.58C837.913 358.1 837.667 358.853 837.667 359.84V366H835.387V354.98H837.667V356.24C838.04 355.787 838.513 355.433 839.087 355.18C839.673 354.927 840.293 354.8 840.947 354.8ZM858.475 360.22C858.475 360.633 858.448 361.007 858.395 361.34H849.975C850.042 362.22 850.368 362.927 850.955 363.46C851.542 363.993 852.262 364.26 853.115 364.26C854.342 364.26 855.208 363.747 855.715 362.72H858.175C857.842 363.733 857.235 364.567 856.355 365.22C855.488 365.86 854.408 366.18 853.115 366.18C852.062 366.18 851.115 365.947 850.275 365.48C849.448 365 848.795 364.333 848.315 363.48C847.848 362.613 847.615 361.613 847.615 360.48C847.615 359.347 847.842 358.353 848.295 357.5C848.762 356.633 849.408 355.967 850.235 355.5C851.075 355.033 852.035 354.8 853.115 354.8C854.155 354.8 855.082 355.027 855.895 355.48C856.708 355.933 857.342 356.573 857.795 357.4C858.248 358.213 858.475 359.153 858.475 360.22ZM856.095 359.5C856.082 358.66 855.782 357.987 855.195 357.48C854.608 356.973 853.882 356.72 853.015 356.72C852.228 356.72 851.555 356.973 850.995 357.48C850.435 357.973 850.102 358.647 849.995 359.5H856.095ZM864.719 366.18C863.852 366.18 863.072 366.027 862.379 365.72C861.699 365.4 861.159 364.973 860.759 364.44C860.359 363.893 860.145 363.287 860.119 362.62H862.479C862.519 363.087 862.739 363.48 863.139 363.8C863.552 364.107 864.065 364.26 864.679 364.26C865.319 364.26 865.812 364.14 866.159 363.9C866.519 363.647 866.699 363.327 866.699 362.94C866.699 362.527 866.499 362.22 866.099 362.02C865.712 361.82 865.092 361.6 864.239 361.36C863.412 361.133 862.739 360.913 862.219 360.7C861.699 360.487 861.245 360.16 860.859 359.72C860.485 359.28 860.299 358.7 860.299 357.98C860.299 357.393 860.472 356.86 860.819 356.38C861.165 355.887 861.659 355.5 862.299 355.22C862.952 354.94 863.699 354.8 864.539 354.8C865.792 354.8 866.799 355.12 867.559 355.76C868.332 356.387 868.745 357.247 868.799 358.34H866.519C866.479 357.847 866.279 357.453 865.919 357.16C865.559 356.867 865.072 356.72 864.459 356.72C863.859 356.72 863.399 356.833 863.079 357.06C862.759 357.287 862.599 357.587 862.599 357.96C862.599 358.253 862.705 358.5 862.919 358.7C863.132 358.9 863.392 359.06 863.699 359.18C864.005 359.287 864.459 359.427 865.059 359.6C865.859 359.813 866.512 360.033 867.019 360.26C867.539 360.473 867.985 360.793 868.359 361.22C868.732 361.647 868.925 362.213 868.939 362.92C868.939 363.547 868.765 364.107 868.419 364.6C868.072 365.093 867.579 365.48 866.939 365.76C866.312 366.04 865.572 366.18 864.719 366.18ZM875.402 366.18C874.536 366.18 873.756 366.027 873.062 365.72C872.382 365.4 871.842 364.973 871.442 364.44C871.042 363.893 870.829 363.287 870.802 362.62H873.162C873.202 363.087 873.422 363.48 873.822 363.8C874.236 364.107 874.749 364.26 875.362 364.26C876.002 364.26 876.496 364.14 876.842 363.9C877.202 363.647 877.382 363.327 877.382 362.94C877.382 362.527 877.182 362.22 876.782 362.02C876.396 361.82 875.776 361.6 874.922 361.36C874.096 361.133 873.422 360.913 872.902 360.7C872.382 360.487 871.929 360.16 871.542 359.72C871.169 359.28 870.982 358.7 870.982 357.98C870.982 357.393 871.156 356.86 871.502 356.38C871.849 355.887 872.342 355.5 872.982 355.22C873.636 354.94 874.382 354.8 875.222 354.8C876.476 354.8 877.482 355.12 878.242 355.76C879.016 356.387 879.429 357.247 879.482 358.34H877.202C877.162 357.847 876.962 357.453 876.602 357.16C876.242 356.867 875.756 356.72 875.142 356.72C874.542 356.72 874.082 356.833 873.762 357.06C873.442 357.287 873.282 357.587 873.282 357.96C873.282 358.253 873.389 358.5 873.602 358.7C873.816 358.9 874.076 359.06 874.382 359.18C874.689 359.287 875.142 359.427 875.742 359.6C876.542 359.813 877.196 360.033 877.702 360.26C878.222 360.473 878.669 360.793 879.042 361.22C879.416 361.647 879.609 362.213 879.622 362.92C879.622 363.547 879.449 364.107 879.102 364.6C878.756 365.093 878.262 365.48 877.622 365.76C876.996 366.04 876.256 366.18 875.402 366.18ZM886.521 359.02C886.521 357.66 886.835 356.44 887.461 355.36C888.101 354.28 888.961 353.44 890.041 352.84C891.135 352.227 892.328 351.92 893.621 351.92C895.101 351.92 896.415 352.287 897.561 353.02C898.721 353.74 899.561 354.767 900.081 356.1H897.341C896.981 355.367 896.481 354.82 895.841 354.46C895.201 354.1 894.461 353.92 893.621 353.92C892.701 353.92 891.881 354.127 891.161 354.54C890.441 354.953 889.875 355.547 889.461 356.32C889.061 357.093 888.861 357.993 888.861 359.02C888.861 360.047 889.061 360.947 889.461 361.72C889.875 362.493 890.441 363.093 891.161 363.52C891.881 363.933 892.701 364.14 893.621 364.14C894.461 364.14 895.201 363.96 895.841 363.6C896.481 363.24 896.981 362.693 897.341 361.96H900.081C899.561 363.293 898.721 364.32 897.561 365.04C896.415 365.76 895.101 366.12 893.621 366.12C892.315 366.12 891.121 365.82 890.041 365.22C888.961 364.607 888.101 363.76 887.461 362.68C886.835 361.6 886.521 360.38 886.521 359.02ZM908.45 354.8C909.29 354.8 910.037 354.98 910.69 355.34C911.357 355.7 911.877 356.233 912.25 356.94C912.637 357.647 912.83 358.5 912.83 359.5V366H910.57V359.84C910.57 358.853 910.323 358.1 909.83 357.58C909.337 357.047 908.663 356.78 907.81 356.78C906.957 356.78 906.277 357.047 905.77 357.58C905.277 358.1 905.03 358.853 905.03 359.84V366H902.75V351.2H905.03V356.26C905.417 355.793 905.903 355.433 906.49 355.18C907.09 354.927 907.743 354.8 908.45 354.8ZM925.838 360.22C925.838 360.633 925.812 361.007 925.758 361.34H917.338C917.405 362.22 917.732 362.927 918.318 363.46C918.905 363.993 919.625 364.26 920.478 364.26C921.705 364.26 922.572 363.747 923.078 362.72H925.538C925.205 363.733 924.598 364.567 923.718 365.22C922.852 365.86 921.772 366.18 920.478 366.18C919.425 366.18 918.478 365.947 917.638 365.48C916.812 365 916.158 364.333 915.678 363.48C915.212 362.613 914.978 361.613 914.978 360.48C914.978 359.347 915.205 358.353 915.658 357.5C916.125 356.633 916.772 355.967 917.598 355.5C918.438 355.033 919.398 354.8 920.478 354.8C921.518 354.8 922.445 355.027 923.258 355.48C924.072 355.933 924.705 356.573 925.158 357.4C925.612 358.213 925.838 359.153 925.838 360.22ZM923.458 359.5C923.445 358.66 923.145 357.987 922.558 357.48C921.972 356.973 921.245 356.72 920.378 356.72C919.592 356.72 918.918 356.973 918.358 357.48C917.798 357.973 917.465 358.647 917.358 359.5H923.458ZM927.322 360.48C927.322 359.347 927.549 358.353 928.002 357.5C928.469 356.633 929.109 355.967 929.922 355.5C930.735 355.033 931.669 354.8 932.722 354.8C934.055 354.8 935.155 355.12 936.022 355.76C936.902 356.387 937.495 357.287 937.802 358.46H935.342C935.142 357.913 934.822 357.487 934.382 357.18C933.942 356.873 933.389 356.72 932.722 356.72C931.789 356.72 931.042 357.053 930.482 357.72C929.935 358.373 929.662 359.293 929.662 360.48C929.662 361.667 929.935 362.593 930.482 363.26C931.042 363.927 931.789 364.26 932.722 364.26C934.042 364.26 934.915 363.68 935.342 362.52H937.802C937.482 363.64 936.882 364.533 936.002 365.2C935.122 365.853 934.029 366.18 932.722 366.18C931.669 366.18 930.735 365.947 929.922 365.48C929.109 365 928.469 364.333 928.002 363.48C927.549 362.613 927.322 361.613 927.322 360.48ZM944.434 360.5L949.514 366H946.434L942.354 361.26V366H940.074V351.2H942.354V359.8L946.354 354.98H949.514L944.434 360.5ZM961.248 360.22C961.248 360.633 961.222 361.007 961.168 361.34H952.748C952.815 362.22 953.142 362.927 953.728 363.46C954.315 363.993 955.035 364.26 955.888 364.26C957.115 364.26 957.982 363.747 958.488 362.72H960.948C960.615 363.733 960.008 364.567 959.128 365.22C958.262 365.86 957.182 366.18 955.888 366.18C954.835 366.18 953.888 365.947 953.048 365.48C952.222 365 951.568 364.333 951.088 363.48C950.622 362.613 950.388 361.613 950.388 360.48C950.388 359.347 950.615 358.353 951.068 357.5C951.535 356.633 952.182 355.967 953.008 355.5C953.848 355.033 954.808 354.8 955.888 354.8C956.928 354.8 957.855 355.027 958.668 355.48C959.482 355.933 960.115 356.573 960.568 357.4C961.022 358.213 961.248 359.153 961.248 360.22ZM958.868 359.5C958.855 358.66 958.555 357.987 957.968 357.48C957.382 356.973 956.655 356.72 955.788 356.72C955.002 356.72 954.328 356.973 953.768 357.48C953.208 357.973 952.875 358.647 952.768 359.5H958.868ZM965.772 356.58C966.106 356.02 966.546 355.587 967.092 355.28C967.652 354.96 968.312 354.8 969.072 354.8V357.16H968.492C967.599 357.16 966.919 357.387 966.452 357.84C965.999 358.293 965.772 359.08 965.772 360.2V366H963.492V354.98H965.772V356.58Z" fill="white"/>
<path d="M252.456 194.736C252.243 192.731 251.539 191.173 250.344 190.064C249.171 188.955 247.656 188.4 245.8 188.4C244.669 188.4 243.603 188.645 242.6 189.136C241.619 189.605 240.755 190.288 240.008 191.184C239.261 192.08 238.675 193.157 238.248 194.416C237.821 195.675 237.608 197.093 237.608 198.672C237.608 200.677 237.992 202.448 238.76 203.984C239.528 205.52 240.563 206.715 241.864 207.568C243.165 208.421 244.605 208.848 246.184 208.848C247.571 208.848 248.936 208.539 250.28 207.92C251.624 207.28 252.723 206.363 253.576 205.168L254.408 205.84C253.491 207.099 252.499 208.069 251.432 208.752C250.365 209.435 249.299 209.893 248.232 210.128C247.187 210.384 246.227 210.512 245.352 210.512C243.752 210.512 242.28 210.224 240.936 209.648C239.613 209.072 238.461 208.272 237.48 207.248C236.52 206.203 235.773 204.997 235.24 203.632C234.728 202.245 234.472 200.752 234.472 199.152C234.472 197.637 234.696 196.165 235.144 194.736C235.613 193.307 236.307 192.016 237.224 190.864C238.141 189.712 239.293 188.795 240.68 188.112C242.088 187.429 243.72 187.088 245.576 187.088C246.771 187.088 247.901 187.248 248.968 187.568C250.035 187.888 251.059 188.379 252.04 189.04L251.88 187.312H253.608V194.736H252.456ZM256.783 209.04C257.444 209.04 257.903 208.88 258.159 208.56C258.415 208.219 258.564 207.76 258.607 207.184C258.65 206.587 258.671 205.904 258.671 205.136V197.84C258.671 197.499 258.671 197.157 258.671 196.816C258.692 196.475 258.735 196.123 258.799 195.76C258.415 195.781 258.031 195.803 257.647 195.824C257.284 195.824 256.911 195.835 256.527 195.856V194.544H257.519C258.436 194.544 259.066 194.459 259.407 194.288C259.77 194.096 260.068 193.893 260.303 193.68H261.231C261.274 194.021 261.306 194.448 261.327 194.96C261.348 195.451 261.37 196.08 261.391 196.848C261.711 196.315 262.148 195.792 262.703 195.28C263.258 194.768 263.876 194.341 264.559 194C265.263 193.659 265.999 193.488 266.767 193.488C267.364 193.488 267.887 193.648 268.335 193.968C268.783 194.288 269.007 194.8 269.007 195.504C269.007 195.675 268.954 195.888 268.847 196.144C268.74 196.379 268.57 196.592 268.335 196.784C268.1 196.955 267.791 197.04 267.407 197.04C266.938 197.019 266.564 196.837 266.287 196.496C266.01 196.133 265.903 195.717 265.967 195.248C265.434 195.227 264.879 195.365 264.303 195.664C263.748 195.963 263.226 196.379 262.735 196.912C262.244 197.424 261.807 198.032 261.423 198.736L261.455 206.608C261.455 207.035 261.444 207.419 261.423 207.76C261.423 208.08 261.391 208.421 261.327 208.784C261.668 208.763 261.999 208.752 262.319 208.752C262.66 208.731 263.002 208.709 263.343 208.688V210H256.783V209.04ZM278.152 210.512C276.68 210.512 275.347 210.171 274.152 209.488C272.979 208.784 272.051 207.803 271.368 206.544C270.685 205.264 270.344 203.76 270.344 202.032C270.344 200.539 270.675 199.141 271.336 197.84C272.019 196.539 272.968 195.493 274.184 194.704C275.4 193.893 276.808 193.488 278.408 193.488C279.304 193.488 280.136 193.637 280.904 193.936C281.693 194.213 282.387 194.651 282.984 195.248C283.581 195.824 284.051 196.56 284.392 197.456C284.733 198.331 284.904 199.365 284.904 200.56L273.64 200.752C273.64 202.373 273.811 203.803 274.152 205.04C274.515 206.256 275.091 207.205 275.88 207.888C276.669 208.549 277.683 208.88 278.92 208.88C279.581 208.88 280.253 208.763 280.936 208.528C281.64 208.293 282.291 207.973 282.888 207.568C283.485 207.163 283.965 206.715 284.328 206.224L285.096 206.864C284.52 207.76 283.827 208.475 283.016 209.008C282.205 209.541 281.373 209.925 280.52 210.16C279.667 210.395 278.877 210.512 278.152 210.512ZM273.736 199.408H281.896C281.896 198.64 281.779 197.904 281.544 197.2C281.331 196.475 280.968 195.888 280.456 195.44C279.944 194.971 279.272 194.736 278.44 194.736C277.203 194.736 276.168 195.109 275.336 195.856C274.525 196.581 273.992 197.765 273.736 199.408ZM294.444 210.512C293.142 210.512 291.969 210.192 290.924 209.552C289.878 208.891 289.046 207.952 288.428 206.736C287.83 205.52 287.532 204.091 287.532 202.448C287.532 200.699 287.884 199.152 288.588 197.808C289.292 196.464 290.262 195.408 291.5 194.64C292.758 193.872 294.177 193.488 295.756 193.488C296.46 193.488 297.153 193.584 297.836 193.776C298.54 193.947 299.094 194.149 299.5 194.384V190C299.5 189.659 299.5 189.339 299.5 189.04C299.521 188.72 299.553 188.347 299.596 187.92C299.212 187.941 298.828 187.963 298.444 187.984C298.081 188.005 297.708 188.027 297.324 188.048V186.704C298.262 186.704 298.988 186.661 299.5 186.576C300.012 186.491 300.396 186.384 300.652 186.256C300.929 186.128 301.142 185.989 301.292 185.84H302.22V206.608C302.22 206.949 302.209 207.291 302.188 207.632C302.166 207.973 302.134 208.357 302.092 208.784C302.476 208.763 302.849 208.741 303.212 208.72C303.596 208.699 303.98 208.677 304.364 208.656V210H299.788C299.724 209.68 299.67 209.392 299.628 209.136C299.606 208.859 299.585 208.592 299.564 208.336C298.966 208.997 298.23 209.531 297.356 209.936C296.481 210.32 295.51 210.512 294.444 210.512ZM295.595 208.944C296.3 208.944 297.004 208.741 297.708 208.336C298.433 207.931 299.03 207.429 299.5 206.832C299.478 206.576 299.468 206.309 299.468 206.032C299.468 205.733 299.468 205.413 299.468 205.072L299.5 195.856C298.988 195.472 298.422 195.195 297.804 195.024C297.206 194.832 296.588 194.736 295.948 194.736C294.881 194.736 293.953 195.045 293.164 195.664C292.374 196.283 291.777 197.147 291.372 198.256C290.966 199.365 290.785 200.667 290.828 202.16C290.87 203.461 291.073 204.624 291.436 205.648C291.82 206.672 292.353 207.483 293.036 208.08C293.74 208.656 294.593 208.944 295.595 208.944ZM314.465 210.512C312.993 210.512 311.659 210.171 310.465 209.488C309.291 208.784 308.363 207.803 307.681 206.544C306.998 205.264 306.657 203.76 306.657 202.032C306.657 200.539 306.987 199.141 307.649 197.84C308.331 196.539 309.281 195.493 310.497 194.704C311.713 193.893 313.121 193.488 314.72 193.488C315.617 193.488 316.449 193.637 317.217 193.936C318.006 194.213 318.699 194.651 319.297 195.248C319.894 195.824 320.363 196.56 320.705 197.456C321.046 198.331 321.217 199.365 321.217 200.56L309.953 200.752C309.953 202.373 310.123 203.803 310.465 205.04C310.827 206.256 311.403 207.205 312.193 207.888C312.982 208.549 313.995 208.88 315.233 208.88C315.894 208.88 316.566 208.763 317.249 208.528C317.953 208.293 318.603 207.973 319.201 207.568C319.798 207.163 320.278 206.715 320.641 206.224L321.409 206.864C320.833 207.76 320.139 208.475 319.329 209.008C318.518 209.541 317.686 209.925 316.833 210.16C315.979 210.395 315.19 210.512 314.465 210.512ZM310.049 199.408H318.209C318.209 198.64 318.091 197.904 317.857 197.2C317.643 196.475 317.281 195.888 316.769 195.44C316.257 194.971 315.585 194.736 314.753 194.736C313.515 194.736 312.481 195.109 311.649 195.856C310.838 196.581 310.305 197.765 310.049 199.408ZM324.064 210V209.04C324.726 209.04 325.184 208.88 325.44 208.56C325.696 208.219 325.846 207.76 325.888 207.184C325.931 206.587 325.952 205.904 325.952 205.136L325.984 197.84C325.984 197.499 325.984 197.157 325.984 196.816C326.006 196.475 326.048 196.123 326.112 195.76C325.728 195.781 325.344 195.803 324.96 195.824C324.598 195.845 324.224 195.867 323.84 195.888V194.544C324.779 194.544 325.483 194.501 325.952 194.416C326.443 194.331 326.806 194.224 327.04 194.096C327.275 193.968 327.467 193.829 327.616 193.68H328.544C328.566 193.829 328.576 194 328.576 194.192C328.598 194.384 328.619 194.597 328.64 194.832C328.662 195.067 328.672 195.333 328.672 195.632C329.142 195.227 329.654 194.864 330.208 194.544C330.784 194.224 331.382 193.968 332 193.776C332.64 193.584 333.27 193.488 333.888 193.488C335.744 193.488 337.099 194.075 337.952 195.248C338.806 196.4 339.232 198.203 339.232 200.656V206.608C339.232 207.035 339.222 207.419 339.2 207.76C339.2 208.08 339.168 208.421 339.104 208.784C339.446 208.763 339.776 208.752 340.096 208.752C340.438 208.731 340.779 208.709 341.12 208.688V210H334.592V209.04C335.254 209.04 335.712 208.88 335.968 208.56C336.224 208.219 336.374 207.76 336.416 207.184C336.459 206.587 336.48 205.904 336.48 205.136V200.656C336.459 198.821 336.15 197.435 335.552 196.496C334.976 195.557 334.059 195.099 332.8 195.12C332.032 195.141 331.275 195.344 330.528 195.728C329.803 196.112 329.195 196.603 328.704 197.2C328.726 197.371 328.736 197.563 328.736 197.776C328.736 197.989 328.736 198.213 328.736 198.448L328.704 206.608C328.704 207.035 328.694 207.419 328.672 207.76C328.672 208.08 328.64 208.421 328.576 208.784C328.918 208.763 329.248 208.752 329.568 208.752C329.91 208.731 330.251 208.709 330.592 208.688V210H324.064ZM351.31 210.512C349.88 210.512 348.558 210.192 347.342 209.552C346.147 208.891 345.187 207.952 344.462 206.736C343.758 205.499 343.406 204.016 343.406 202.288C343.406 201.179 343.608 200.101 344.014 199.056C344.419 198.011 344.984 197.072 345.71 196.24C346.456 195.387 347.342 194.715 348.366 194.224C349.39 193.733 350.52 193.488 351.758 193.488C352.952 193.488 353.987 193.669 354.862 194.032C355.758 194.395 356.451 194.875 356.942 195.472C357.432 196.069 357.678 196.72 357.678 197.424C357.678 197.893 357.55 198.299 357.294 198.64C357.038 198.96 356.664 199.12 356.174 199.12C355.64 199.141 355.256 198.981 355.022 198.64C354.808 198.277 354.702 197.957 354.702 197.68C354.702 197.467 354.734 197.253 354.798 197.04C354.862 196.805 354.99 196.592 355.182 196.4C355.011 195.888 354.712 195.515 354.286 195.28C353.859 195.024 353.411 194.864 352.942 194.8C352.494 194.715 352.12 194.672 351.822 194.672C350.371 194.672 349.144 195.259 348.142 196.432C347.16 197.584 346.67 199.269 346.67 201.488C346.67 202.917 346.894 204.187 347.342 205.296C347.811 206.405 348.462 207.28 349.294 207.92C350.126 208.539 351.086 208.848 352.174 208.848C353.176 208.848 354.136 208.581 355.054 208.048C355.971 207.515 356.686 206.864 357.198 206.096L358.03 206.736C357.475 207.632 356.803 208.357 356.014 208.912C355.246 209.467 354.446 209.872 353.614 210.128C352.803 210.384 352.035 210.512 351.31 210.512ZM368.121 210.512C366.649 210.512 365.315 210.171 364.121 209.488C362.947 208.784 362.019 207.803 361.337 206.544C360.654 205.264 360.313 203.76 360.313 202.032C360.313 200.539 360.643 199.141 361.305 197.84C361.987 196.539 362.937 195.493 364.153 194.704C365.369 193.893 366.777 193.488 368.377 193.488C369.273 193.488 370.105 193.637 370.873 193.936C371.662 194.213 372.355 194.651 372.953 195.248C373.55 195.824 374.019 196.56 374.361 197.456C374.702 198.331 374.873 199.365 374.873 200.56L363.609 200.752C363.609 202.373 363.779 203.803 364.121 205.04C364.483 206.256 365.059 207.205 365.849 207.888C366.638 208.549 367.651 208.88 368.889 208.88C369.55 208.88 370.222 208.763 370.905 208.528C371.609 208.293 372.259 207.973 372.857 207.568C373.454 207.163 373.934 206.715 374.297 206.224L375.065 206.864C374.489 207.76 373.795 208.475 372.985 209.008C372.174 209.541 371.342 209.925 370.489 210.16C369.635 210.395 368.846 210.512 368.121 210.512ZM363.705 199.408H371.865C371.865 198.64 371.747 197.904 371.513 197.2C371.299 196.475 370.937 195.888 370.425 195.44C369.913 194.971 369.241 194.736 368.409 194.736C367.171 194.736 366.137 195.109 365.305 195.856C364.494 196.581 363.961 197.765 363.705 199.408Z" fill="white"/>
<path d="M680.74 41.02C680.74 39.66 681.053 38.44 681.68 37.36C682.32 36.28 683.18 35.44 684.26 34.84C685.353 34.2267 686.547 33.92 687.84 33.92C689.32 33.92 690.633 34.2867 691.78 35.02C692.94 35.74 693.78 36.7667 694.3 38.1H691.56C691.2 37.3667 690.7 36.82 690.06 36.46C689.42 36.1 688.68 35.92 687.84 35.92C686.92 35.92 686.1 36.1267 685.38 36.54C684.66 36.9533 684.093 37.5467 683.68 38.32C683.28 39.0933 683.08 39.9933 683.08 41.02C683.08 42.0467 683.28 42.9467 683.68 43.72C684.093 44.4933 684.66 45.0933 685.38 45.52C686.1 45.9333 686.92 46.14 687.84 46.14C688.68 46.14 689.42 45.96 690.06 45.6C690.7 45.24 691.2 44.6933 691.56 43.96H694.3C693.78 45.2933 692.94 46.32 691.78 47.04C690.633 47.76 689.32 48.12 687.84 48.12C686.533 48.12 685.34 47.82 684.26 47.22C683.18 46.6067 682.32 45.76 681.68 44.68C681.053 43.6 680.74 42.38 680.74 41.02ZM699.249 38.58C699.582 38.02 700.022 37.5867 700.569 37.28C701.129 36.96 701.789 36.8 702.549 36.8V39.16H701.969C701.075 39.16 700.395 39.3867 699.929 39.84C699.475 40.2933 699.249 41.08 699.249 42.2V48H696.969V36.98H699.249V38.58ZM714.745 42.22C714.745 42.6333 714.718 43.0067 714.665 43.34H706.245C706.311 44.22 706.638 44.9267 707.225 45.46C707.811 45.9933 708.531 46.26 709.385 46.26C710.611 46.26 711.478 45.7467 711.985 44.72H714.445C714.111 45.7333 713.505 46.5667 712.625 47.22C711.758 47.86 710.678 48.18 709.385 48.18C708.331 48.18 707.385 47.9467 706.545 47.48C705.718 47 705.065 46.3333 704.585 45.48C704.118 44.6133 703.885 43.6133 703.885 42.48C703.885 41.3467 704.111 40.3533 704.565 39.5C705.031 38.6333 705.678 37.9667 706.505 37.5C707.345 37.0333 708.305 36.8 709.385 36.8C710.425 36.8 711.351 37.0267 712.165 37.48C712.978 37.9333 713.611 38.5733 714.065 39.4C714.518 40.2133 714.745 41.1533 714.745 42.22ZM712.365 41.5C712.351 40.66 712.051 39.9867 711.465 39.48C710.878 38.9733 710.151 38.72 709.285 38.72C708.498 38.72 707.825 38.9733 707.265 39.48C706.705 39.9733 706.371 40.6467 706.265 41.5H712.365ZM716.228 42.44C716.228 41.3333 716.455 40.3533 716.908 39.5C717.375 38.6467 718.002 37.9867 718.788 37.52C719.588 37.04 720.475 36.8 721.448 36.8C722.168 36.8 722.875 36.96 723.568 37.28C724.275 37.5867 724.835 38 725.248 38.52V33.2H727.548V48H725.248V46.34C724.875 46.8733 724.355 47.3133 723.688 47.66C723.035 48.0067 722.282 48.18 721.428 48.18C720.468 48.18 719.588 47.94 718.788 47.46C718.002 46.9667 717.375 46.2867 716.908 45.42C716.455 44.54 716.228 43.5467 716.228 42.44ZM725.248 42.48C725.248 41.72 725.088 41.06 724.768 40.5C724.462 39.94 724.055 39.5133 723.548 39.22C723.042 38.9267 722.495 38.78 721.908 38.78C721.322 38.78 720.775 38.9267 720.268 39.22C719.762 39.5 719.348 39.92 719.028 40.48C718.722 41.0267 718.568 41.68 718.568 42.44C718.568 43.2 718.722 43.8667 719.028 44.44C719.348 45.0133 719.762 45.4533 720.268 45.76C720.788 46.0533 721.335 46.2 721.908 46.2C722.495 46.2 723.042 46.0533 723.548 45.76C724.055 45.4667 724.462 45.04 724.768 44.48C725.088 43.9067 725.248 43.24 725.248 42.48ZM731.703 35.52C731.29 35.52 730.943 35.38 730.663 35.1C730.383 34.82 730.243 34.4733 730.243 34.06C730.243 33.6467 730.383 33.3 730.663 33.02C730.943 32.74 731.29 32.6 731.703 32.6C732.103 32.6 732.443 32.74 732.723 33.02C733.003 33.3 733.143 33.6467 733.143 34.06C733.143 34.4733 733.003 34.82 732.723 35.1C732.443 35.38 732.103 35.52 731.703 35.52ZM732.823 36.98V48H730.543V36.98H732.823ZM738.476 38.84V44.94C738.476 45.3533 738.57 45.6533 738.756 45.84C738.956 46.0133 739.29 46.1 739.756 46.1H741.156V48H739.356C738.33 48 737.543 47.76 736.996 47.28C736.45 46.8 736.176 46.02 736.176 44.94V38.84H734.876V36.98H736.176V34.24H738.476V36.98H741.156V38.84H738.476ZM753.033 48.14C752.1 48.14 751.26 47.98 750.513 47.66C749.766 47.3267 749.18 46.86 748.753 46.26C748.326 45.66 748.113 44.96 748.113 44.16H750.553C750.606 44.76 750.84 45.2533 751.253 45.64C751.68 46.0267 752.273 46.22 753.033 46.22C753.82 46.22 754.433 46.0333 754.873 45.66C755.313 45.2733 755.533 44.78 755.533 44.18C755.533 43.7133 755.393 43.3333 755.113 43.04C754.846 42.7467 754.506 42.52 754.093 42.36C753.693 42.2 753.133 42.0267 752.413 41.84C751.506 41.6 750.766 41.36 750.193 41.12C749.633 40.8667 749.153 40.48 748.753 39.96C748.353 39.44 748.153 38.7467 748.153 37.88C748.153 37.08 748.353 36.38 748.753 35.78C749.153 35.18 749.713 34.72 750.433 34.4C751.153 34.08 751.986 33.92 752.933 33.92C754.28 33.92 755.38 34.26 756.233 34.94C757.1 35.6067 757.58 36.5267 757.673 37.7H755.153C755.113 37.1933 754.873 36.76 754.433 36.4C753.993 36.04 753.413 35.86 752.693 35.86C752.04 35.86 751.506 36.0267 751.093 36.36C750.68 36.6933 750.473 37.1733 750.473 37.8C750.473 38.2267 750.6 38.58 750.853 38.86C751.12 39.1267 751.453 39.34 751.853 39.5C752.253 39.66 752.8 39.8333 753.493 40.02C754.413 40.2733 755.16 40.5267 755.733 40.78C756.32 41.0333 756.813 41.4267 757.213 41.96C757.626 42.48 757.833 43.18 757.833 44.06C757.833 44.7667 757.64 45.4333 757.253 46.06C756.88 46.6867 756.326 47.1933 755.593 47.58C754.873 47.9533 754.02 48.14 753.033 48.14ZM759.763 42.48C759.763 41.3467 759.99 40.3533 760.443 39.5C760.91 38.6333 761.55 37.9667 762.363 37.5C763.177 37.0333 764.11 36.8 765.163 36.8C766.497 36.8 767.597 37.12 768.463 37.76C769.343 38.3867 769.937 39.2867 770.243 40.46H767.783C767.583 39.9133 767.263 39.4867 766.823 39.18C766.383 38.8733 765.83 38.72 765.163 38.72C764.23 38.72 763.483 39.0533 762.923 39.72C762.377 40.3733 762.103 41.2933 762.103 42.48C762.103 43.6667 762.377 44.5933 762.923 45.26C763.483 45.9267 764.23 46.26 765.163 46.26C766.483 46.26 767.357 45.68 767.783 44.52H770.243C769.923 45.64 769.323 46.5333 768.443 47.2C767.563 47.8533 766.47 48.18 765.163 48.18C764.11 48.18 763.177 47.9467 762.363 47.48C761.55 47 760.91 46.3333 760.443 45.48C759.99 44.6133 759.763 43.6133 759.763 42.48ZM777.296 48.18C776.256 48.18 775.316 47.9467 774.476 47.48C773.636 47 772.976 46.3333 772.496 45.48C772.016 44.6133 771.776 43.6133 771.776 42.48C771.776 41.36 772.022 40.3667 772.516 39.5C773.009 38.6333 773.682 37.9667 774.536 37.5C775.389 37.0333 776.342 36.8 777.396 36.8C778.449 36.8 779.402 37.0333 780.256 37.5C781.109 37.9667 781.782 38.6333 782.276 39.5C782.769 40.3667 783.016 41.36 783.016 42.48C783.016 43.6 782.762 44.5933 782.256 45.46C781.749 46.3267 781.056 47 780.176 47.48C779.309 47.9467 778.349 48.18 777.296 48.18ZM777.296 46.2C777.882 46.2 778.429 46.06 778.936 45.78C779.456 45.5 779.876 45.08 780.196 44.52C780.516 43.96 780.676 43.28 780.676 42.48C780.676 41.68 780.522 41.0067 780.216 40.46C779.909 39.9 779.502 39.48 778.996 39.2C778.489 38.92 777.942 38.78 777.356 38.78C776.769 38.78 776.222 38.92 775.716 39.2C775.222 39.48 774.829 39.9 774.536 40.46C774.242 41.0067 774.096 41.68 774.096 42.48C774.096 43.6667 774.396 44.5867 774.996 45.24C775.609 45.88 776.376 46.2 777.296 46.2ZM787.55 38.58C787.883 38.02 788.323 37.5867 788.87 37.28C789.43 36.96 790.09 36.8 790.85 36.8V39.16H790.27C789.376 39.16 788.696 39.3867 788.23 39.84C787.776 40.2933 787.55 41.08 787.55 42.2V48H785.27V36.98H787.55V38.58ZM794.105 35.52C793.692 35.52 793.345 35.38 793.065 35.1C792.785 34.82 792.645 34.4733 792.645 34.06C792.645 33.6467 792.785 33.3 793.065 33.02C793.345 32.74 793.692 32.6 794.105 32.6C794.505 32.6 794.845 32.74 795.125 33.02C795.405 33.3 795.545 33.6467 795.545 34.06C795.545 34.4733 795.405 34.82 795.125 35.1C794.845 35.38 794.505 35.52 794.105 35.52ZM795.225 36.98V48H792.945V36.98H795.225ZM803.779 36.8C804.645 36.8 805.419 36.98 806.099 37.34C806.792 37.7 807.332 38.2333 807.719 38.94C808.105 39.6467 808.299 40.5 808.299 41.5V48H806.039V41.84C806.039 40.8533 805.792 40.1 805.299 39.58C804.805 39.0467 804.132 38.78 803.279 38.78C802.425 38.78 801.745 39.0467 801.239 39.58C800.745 40.1 800.499 40.8533 800.499 41.84V48H798.219V36.98H800.499V38.24C800.872 37.7867 801.345 37.4333 801.919 37.18C802.505 36.9267 803.125 36.8 803.779 36.8ZM815.647 36.8C816.5 36.8 817.254 36.9733 817.907 37.32C818.574 37.6533 819.094 38.0733 819.467 38.58V36.98H821.767V48.18C821.767 49.1933 821.554 50.0933 821.127 50.88C820.7 51.68 820.08 52.3067 819.267 52.76C818.467 53.2133 817.507 53.44 816.387 53.44C814.894 53.44 813.654 53.0867 812.667 52.38C811.68 51.6867 811.12 50.74 810.987 49.54H813.247C813.42 50.1133 813.787 50.5733 814.347 50.92C814.92 51.28 815.6 51.46 816.387 51.46C817.307 51.46 818.047 51.18 818.607 50.62C819.18 50.06 819.467 49.2467 819.467 48.18V46.34C819.08 46.86 818.554 47.3 817.887 47.66C817.234 48.0067 816.487 48.18 815.647 48.18C814.687 48.18 813.807 47.94 813.007 47.46C812.22 46.9667 811.594 46.2867 811.127 45.42C810.674 44.54 810.447 43.5467 810.447 42.44C810.447 41.3333 810.674 40.3533 811.127 39.5C811.594 38.6467 812.22 37.9867 813.007 37.52C813.807 37.04 814.687 36.8 815.647 36.8ZM819.467 42.48C819.467 41.72 819.307 41.06 818.987 40.5C818.68 39.94 818.274 39.5133 817.767 39.22C817.26 38.9267 816.714 38.78 816.127 38.78C815.54 38.78 814.994 38.9267 814.487 39.22C813.98 39.5 813.567 39.92 813.247 40.48C812.94 41.0267 812.787 41.68 812.787 42.44C812.787 43.2 812.94 43.8667 813.247 44.44C813.567 45.0133 813.98 45.4533 814.487 45.76C815.007 46.0533 815.554 46.2 816.127 46.2C816.714 46.2 817.26 46.0533 817.767 45.76C818.274 45.4667 818.68 45.04 818.987 44.48C819.307 43.9067 819.467 43.24 819.467 42.48ZM844.597 34.1V48H842.317V38.48L838.077 48H836.497L832.237 38.48V48H829.957V34.1H832.417L837.297 45L842.157 34.1H844.597ZM852.374 48.18C851.334 48.18 850.394 47.9467 849.554 47.48C848.714 47 848.054 46.3333 847.574 45.48C847.094 44.6133 846.854 43.6133 846.854 42.48C846.854 41.36 847.1 40.3667 847.594 39.5C848.087 38.6333 848.76 37.9667 849.614 37.5C850.467 37.0333 851.42 36.8 852.474 36.8C853.527 36.8 854.48 37.0333 855.334 37.5C856.187 37.9667 856.86 38.6333 857.354 39.5C857.847 40.3667 858.094 41.36 858.094 42.48C858.094 43.6 857.84 44.5933 857.334 45.46C856.827 46.3267 856.134 47 855.254 47.48C854.387 47.9467 853.427 48.18 852.374 48.18ZM852.374 46.2C852.96 46.2 853.507 46.06 854.014 45.78C854.534 45.5 854.954 45.08 855.274 44.52C855.594 43.96 855.754 43.28 855.754 42.48C855.754 41.68 855.6 41.0067 855.294 40.46C854.987 39.9 854.58 39.48 854.074 39.2C853.567 38.92 853.02 38.78 852.434 38.78C851.847 38.78 851.3 38.92 850.794 39.2C850.3 39.48 849.907 39.9 849.614 40.46C849.32 41.0067 849.174 41.68 849.174 42.48C849.174 43.6667 849.474 44.5867 850.074 45.24C850.687 45.88 851.454 46.2 852.374 46.2ZM859.588 42.44C859.588 41.3333 859.814 40.3533 860.268 39.5C860.734 38.6467 861.361 37.9867 862.148 37.52C862.948 37.04 863.834 36.8 864.808 36.8C865.528 36.8 866.234 36.96 866.928 37.28C867.634 37.5867 868.194 38 868.608 38.52V33.2H870.908V48H868.608V46.34C868.234 46.8733 867.714 47.3133 867.048 47.66C866.394 48.0067 865.641 48.18 864.788 48.18C863.828 48.18 862.948 47.94 862.148 47.46C861.361 46.9667 860.734 46.2867 860.268 45.42C859.814 44.54 859.588 43.5467 859.588 42.44ZM868.608 42.48C868.608 41.72 868.448 41.06 868.128 40.5C867.821 39.94 867.414 39.5133 866.908 39.22C866.401 38.9267 865.854 38.78 865.268 38.78C864.681 38.78 864.134 38.9267 863.628 39.22C863.121 39.5 862.708 39.92 862.388 40.48C862.081 41.0267 861.928 41.68 861.928 42.44C861.928 43.2 862.081 43.8667 862.388 44.44C862.708 45.0133 863.121 45.4533 863.628 45.76C864.148 46.0533 864.694 46.2 865.268 46.2C865.854 46.2 866.401 46.0533 866.908 45.76C867.414 45.4667 867.821 45.04 868.128 44.48C868.448 43.9067 868.608 43.24 868.608 42.48ZM884.002 42.22C884.002 42.6333 883.976 43.0067 883.922 43.34H875.502C875.569 44.22 875.896 44.9267 876.482 45.46C877.069 45.9933 877.789 46.26 878.642 46.26C879.869 46.26 880.736 45.7467 881.242 44.72H883.702C883.369 45.7333 882.762 46.5667 881.882 47.22C881.016 47.86 879.936 48.18 878.642 48.18C877.589 48.18 876.642 47.9467 875.802 47.48C874.976 47 874.322 46.3333 873.842 45.48C873.376 44.6133 873.142 43.6133 873.142 42.48C873.142 41.3467 873.369 40.3533 873.822 39.5C874.289 38.6333 874.936 37.9667 875.762 37.5C876.602 37.0333 877.562 36.8 878.642 36.8C879.682 36.8 880.609 37.0267 881.422 37.48C882.236 37.9333 882.869 38.5733 883.322 39.4C883.776 40.2133 884.002 41.1533 884.002 42.22ZM881.622 41.5C881.609 40.66 881.309 39.9867 880.722 39.48C880.136 38.9733 879.409 38.72 878.542 38.72C877.756 38.72 877.082 38.9733 876.522 39.48C875.962 39.9733 875.629 40.6467 875.522 41.5H881.622ZM888.526 33.2V48H886.246V33.2H888.526Z" fill="white"/>
<path d="M651.7 35.3037C651.517 35.4906 651.415 35.7419 651.415 36.0037C651.415 36.2654 651.517 36.5168 651.7 36.7037L653.3 38.3037C653.487 38.4869 653.739 38.5895 654 38.5895C654.262 38.5895 654.514 38.4869 654.7 38.3037L657.806 35.1987C658.126 34.8767 658.669 34.9787 658.789 35.4167C659.092 36.5156 659.075 37.6778 658.74 38.7673C658.406 39.8568 657.768 40.8286 656.902 41.5689C656.035 42.3093 654.976 42.7875 653.848 42.9478C652.719 43.108 651.569 42.9436 650.53 42.4737L642.62 50.3837C642.223 50.7814 641.683 51.0048 641.121 51.0047C640.558 51.0046 640.019 50.781 639.621 50.3832C639.223 49.9854 639 49.4459 639 48.8833C639 48.3208 639.224 47.7814 639.621 47.3837L647.531 39.4737C647.062 38.4354 646.897 37.2848 647.057 36.1564C647.218 35.0281 647.696 33.9687 648.436 33.1023C649.177 32.2359 650.148 31.5982 651.238 31.2639C652.327 30.9296 653.49 30.9126 654.588 31.2147C655.026 31.3347 655.128 31.8767 654.807 32.1987L651.7 35.3037Z" stroke="white" stroke-width="2" stroke-linecap="round" stroke-linejoin="round"/>
<path d="M645 116L642 119L645 122" stroke="white" stroke-width="2" stroke-linecap="round" stroke-linejoin="round"/>
<path d="M649 122L652 119L649 116" stroke="white" stroke-width="2" stroke-linecap="round" stroke-linejoin="round"/>
<path d="M654 110H640C638.895 110 638 110.895 638 112V126C638 127.105 638.895 128 640 128H654C655.105 128 656 127.105 656 126V112C656 110.895 655.105 110 654 110Z" stroke="white" stroke-width="2" stroke-linecap="round" stroke-linejoin="round"/>
<path d="M650 201C650.2 200 650.7 199.3 651.5 198.5C652.5 197.6 653 196.3 653 195C653 193.409 652.368 191.883 651.243 190.757C650.117 189.632 648.591 189 647 189C645.409 189 643.883 189.632 642.757 190.757C641.632 191.883 641 193.409 641 195C641 196 641.2 197.2 642.5 198.5C643.2 199.2 643.8 200 644 201" stroke="white" stroke-width="2" stroke-linecap="round" stroke-linejoin="round"/>
<path d="M644 205H650" stroke="white" stroke-width="2" stroke-linecap="round" stroke-linejoin="round"/>
<path d="M645 209H649" stroke="white" stroke-width="2" stroke-linecap="round" stroke-linejoin="round"/>
<path d="M647 270V288" stroke="white" stroke-width="2" stroke-linecap="round" stroke-linejoin="round"/>
<path d="M654 275L657 283C656.135 283.649 655.082 284 654 284C652.918 284 651.865 283.649 651 283L654 275ZM654 275V274" stroke="white" stroke-width="2" stroke-linecap="round" stroke-linejoin="round"/>
<path d="M638 274H639C641.79 274 644.538 273.313 647 272C649.462 273.313 652.21 274 655 274H656" stroke="white" stroke-width="2" stroke-linecap="round" stroke-linejoin="round"/>
<path d="M640 275L643 283C642.135 283.649 641.082 284 640 284C638.918 284 637.865 283.649 637 283L640 275ZM640 275V274" stroke="white" stroke-width="2" stroke-linecap="round" stroke-linejoin="round"/>
<path d="M642 288H652" stroke="white" stroke-width="2" stroke-linecap="round" stroke-linejoin="round"/>
<path d="M648 352H656" stroke="white" stroke-width="2" stroke-linecap="round" stroke-linejoin="round"/>
<path d="M648 359H656" stroke="white" stroke-width="2" stroke-linecap="round" stroke-linejoin="round"/>
<path d="M648 366H656" stroke="white" stroke-width="2" stroke-linecap="round" stroke-linejoin="round"/>
<path d="M638 364L640 366L644 362" stroke="white" stroke-width="2" stroke-linecap="round" stroke-linejoin="round"/>
<path d="M638 354L640 356L644 352" stroke="white" stroke-width="2" stroke-linecap="round" stroke-linejoin="round"/>
<rect x="54.6" y="150.6" width="98.8" height="98.8" rx="23.4" fill="black" stroke="#858585" stroke-width="1.2"/>
<ellipse cx="104" cy="199.5" rx="34" ry="33.5" fill="white"/>
<path d="M87.3333 214C87.3332 211.434 88.0736 208.922 89.4656 206.766C90.8576 204.611 92.8421 202.902 95.181 201.847C97.5199 200.791 100.114 200.433 102.651 200.814C105.189 201.196 107.562 202.303 109.487 204" stroke="black" stroke-width="3" stroke-linecap="round" stroke-linejoin="round"/>
<path d="M100.667 200.667C105.269 200.667 109 196.936 109 192.333C109 187.731 105.269 184 100.667 184C96.0643 184 92.3333 187.731 92.3333 192.333C92.3333 196.936 96.0643 200.667 100.667 200.667Z" stroke="black" stroke-width="3" stroke-linecap="round" stroke-linejoin="round"/>
<path d="M110.667 210.667L114 214L120.667 207.333" stroke="black" stroke-width="3" stroke-linecap="round" stroke-linejoin="round"/>
</svg>
