<svg width="730" height="161" viewBox="0 0 730 161" fill="none" xmlns="http://www.w3.org/2000/svg">
<g clip-path="url(#clip0_3_5)">
<path d="M118.626 33.25H10.3742L64.5002 127L118.626 33.25Z" fill="white" stroke="white" stroke-width="2"/>
<path d="M97.25 81L125.179 129.375H69.3207L97.25 81Z" fill="white"/>
<path d="M206.824 64.944C205.971 56.9227 203.155 50.6933 198.376 46.256C193.683 41.8187 187.624 39.6 180.2 39.6C175.677 39.6 171.411 40.5813 167.4 42.544C163.475 44.4213 160.019 47.152 157.032 50.736C154.045 54.32 151.699 58.6293 149.992 63.664C148.285 68.6987 147.432 74.3733 147.432 80.688C147.432 88.7093 148.968 95.792 152.04 101.936C155.112 108.08 159.251 112.859 164.456 116.272C169.661 119.685 175.421 121.392 181.736 121.392C187.283 121.392 192.744 120.155 198.12 117.68C203.496 115.12 207.891 111.451 211.304 106.672L214.632 109.36C210.963 114.395 206.995 118.277 202.728 121.008C198.461 123.739 194.195 125.573 189.928 126.512C185.747 127.536 181.907 128.048 178.408 128.048C172.008 128.048 166.12 126.896 160.744 124.592C155.453 122.288 150.845 119.088 146.92 114.992C143.08 110.811 140.093 105.989 137.96 100.528C135.912 94.9813 134.888 89.008 134.888 82.608C134.888 76.5493 135.784 70.6613 137.576 64.944C139.453 59.2267 142.227 54.064 145.896 49.456C149.565 44.848 154.173 41.1787 159.72 38.448C165.352 35.7173 171.88 34.352 179.304 34.352C184.083 34.352 188.605 34.992 192.872 36.272C197.139 37.552 201.235 39.5147 205.16 42.16L204.52 35.248H211.432V64.944H206.824ZM224.132 122.16C226.777 122.16 228.612 121.52 229.636 120.24C230.66 118.875 231.257 117.04 231.428 114.736C231.599 112.347 231.684 109.616 231.684 106.544V77.36C231.684 75.9947 231.684 74.6293 231.684 73.264C231.769 71.8987 231.94 70.4907 232.196 69.04C230.66 69.1253 229.124 69.2107 227.588 69.296C226.137 69.296 224.644 69.3387 223.108 69.424V64.176H227.076C230.745 64.176 233.263 63.8347 234.628 63.152C236.079 62.384 237.273 61.5733 238.212 60.72H241.924C242.095 62.0853 242.223 63.792 242.308 65.84C242.393 67.8027 242.479 70.32 242.564 73.392C243.844 71.2587 245.593 69.168 247.812 67.12C250.031 65.072 252.505 63.3653 255.236 62C258.052 60.6347 260.996 59.952 264.068 59.952C266.457 59.952 268.548 60.592 270.34 61.872C272.132 63.152 273.028 65.2 273.028 68.016C273.028 68.6987 272.815 69.552 272.388 70.576C271.961 71.5147 271.279 72.368 270.34 73.136C269.401 73.8187 268.164 74.16 266.628 74.16C264.751 74.0747 263.257 73.3493 262.148 71.984C261.039 70.5333 260.612 68.8693 260.868 66.992C258.735 66.9067 256.516 67.4613 254.212 68.656C251.993 69.8507 249.903 71.5147 247.94 73.648C245.977 75.696 244.228 78.128 242.692 80.944L242.82 112.432C242.82 114.139 242.777 115.675 242.692 117.04C242.692 118.32 242.564 119.685 242.308 121.136C243.673 121.051 244.996 121.008 246.276 121.008C247.641 120.923 249.007 120.837 250.372 120.752V126H224.132V122.16ZM309.608 128.048C303.72 128.048 298.387 126.683 293.608 123.952C288.915 121.136 285.203 117.211 282.472 112.176C279.741 107.056 278.376 101.04 278.376 94.128C278.376 88.1547 279.699 82.5653 282.344 77.36C285.075 72.1547 288.872 67.9733 293.736 64.816C298.6 61.5733 304.232 59.952 310.632 59.952C314.216 59.952 317.544 60.5493 320.616 61.744C323.773 62.8533 326.547 64.6027 328.936 66.992C331.325 69.296 333.203 72.24 334.568 75.824C335.933 79.3227 336.616 83.4613 336.616 88.24L291.56 89.008C291.56 95.4933 292.243 101.211 293.608 106.16C295.059 111.024 297.363 114.821 300.52 117.552C303.677 120.197 307.731 121.52 312.68 121.52C315.325 121.52 318.013 121.051 320.744 120.112C323.56 119.173 326.163 117.893 328.552 116.272C330.941 114.651 332.861 112.859 334.312 110.896L337.384 113.456C335.08 117.04 332.307 119.899 329.064 122.032C325.821 124.165 322.493 125.701 319.08 126.64C315.667 127.579 312.509 128.048 309.608 128.048ZM291.944 83.632H324.584C324.584 80.56 324.115 77.616 323.176 74.8C322.323 71.8987 320.872 69.552 318.824 67.76C316.776 65.8827 314.088 64.944 310.76 64.944C305.811 64.944 301.672 66.4373 298.344 69.424C295.101 72.3253 292.968 77.0613 291.944 83.632ZM374.774 128.048C369.569 128.048 364.875 126.768 360.694 124.208C356.513 121.563 353.185 117.808 350.71 112.944C348.321 108.08 347.126 102.363 347.126 95.792C347.126 88.7947 348.534 82.608 351.35 77.232C354.166 71.856 358.049 67.632 362.998 64.56C368.033 61.488 373.707 59.952 380.022 59.952C382.838 59.952 385.611 60.336 388.342 61.104C391.158 61.7867 393.377 62.5973 394.998 63.536V46C394.998 44.6347 394.998 43.3547 394.998 42.16C395.083 40.88 395.211 39.3867 395.382 37.68C393.846 37.7653 392.31 37.8507 390.774 37.936C389.323 38.0213 387.83 38.1067 386.294 38.192V32.816C390.049 32.816 392.95 32.6453 394.998 32.304C397.046 31.9627 398.582 31.536 399.606 31.024C400.715 30.512 401.569 29.9573 402.166 29.36H405.878V112.432C405.878 113.797 405.835 115.163 405.75 116.528C405.665 117.893 405.537 119.429 405.366 121.136C406.902 121.051 408.395 120.965 409.846 120.88C411.382 120.795 412.918 120.709 414.454 120.624V126H396.15C395.894 124.72 395.681 123.568 395.51 122.544C395.425 121.435 395.339 120.368 395.254 119.344C392.865 121.989 389.921 124.123 386.422 125.744C382.923 127.28 379.041 128.048 374.774 128.048ZM379.382 121.776C382.198 121.776 385.014 120.965 387.83 119.344C390.731 117.723 393.121 115.717 394.998 113.328C394.913 112.304 394.87 111.237 394.87 110.128C394.87 108.933 394.87 107.653 394.87 106.288L394.998 69.424C392.95 67.888 390.689 66.7787 388.214 66.096C385.825 65.328 383.35 64.944 380.79 64.944C376.523 64.944 372.811 66.1813 369.654 68.656C366.497 71.1307 364.107 74.5867 362.486 79.024C360.865 83.4613 360.139 88.6667 360.31 94.64C360.481 99.8453 361.291 104.496 362.742 108.592C364.278 112.688 366.411 115.931 369.142 118.32C371.958 120.624 375.371 121.776 379.382 121.776ZM454.858 128.048C448.97 128.048 443.637 126.683 438.858 123.952C434.165 121.136 430.453 117.211 427.722 112.176C424.991 107.056 423.626 101.04 423.626 94.128C423.626 88.1547 424.949 82.5653 427.594 77.36C430.325 72.1547 434.122 67.9733 438.986 64.816C443.85 61.5733 449.482 59.952 455.882 59.952C459.466 59.952 462.794 60.5493 465.866 61.744C469.023 62.8533 471.797 64.6027 474.186 66.992C476.575 69.296 478.453 72.24 479.818 75.824C481.183 79.3227 481.866 83.4613 481.866 88.24L436.81 89.008C436.81 95.4933 437.493 101.211 438.858 106.16C440.309 111.024 442.613 114.821 445.77 117.552C448.927 120.197 452.981 121.52 457.93 121.52C460.575 121.52 463.263 121.051 465.994 120.112C468.81 119.173 471.413 117.893 473.802 116.272C476.191 114.651 478.111 112.859 479.562 110.896L482.634 113.456C480.33 117.04 477.557 119.899 474.314 122.032C471.071 124.165 467.743 125.701 464.33 126.64C460.917 127.579 457.759 128.048 454.858 128.048ZM437.194 83.632H469.834C469.834 80.56 469.365 77.616 468.426 74.8C467.573 71.8987 466.122 69.552 464.074 67.76C462.026 65.8827 459.338 64.944 456.01 64.944C451.061 64.944 446.922 66.4373 443.594 69.424C440.351 72.3253 438.218 77.0613 437.194 83.632ZM493.257 126V122.16C495.902 122.16 497.737 121.52 498.761 120.24C499.785 118.875 500.382 117.04 500.553 114.736C500.724 112.347 500.809 109.616 500.809 106.544L500.937 77.36C500.937 75.9947 500.937 74.6293 500.937 73.264C501.022 71.8987 501.193 70.4907 501.449 69.04C499.913 69.1253 498.377 69.2107 496.841 69.296C495.39 69.3813 493.897 69.4667 492.361 69.552V64.176C496.116 64.176 498.932 64.0053 500.809 63.664C502.772 63.3227 504.222 62.896 505.161 62.384C506.1 61.872 506.868 61.3173 507.465 60.72H511.177C511.262 61.3173 511.305 62 511.305 62.768C511.39 63.536 511.476 64.3893 511.561 65.328C511.646 66.2667 511.689 67.3333 511.689 68.528C513.566 66.9067 515.614 65.456 517.833 64.176C520.137 62.896 522.526 61.872 525.001 61.104C527.561 60.336 530.078 59.952 532.553 59.952C539.977 59.952 545.396 62.2987 548.809 66.992C552.222 71.6 553.929 78.8107 553.929 88.624V112.432C553.929 114.139 553.886 115.675 553.801 117.04C553.801 118.32 553.673 119.685 553.417 121.136C554.782 121.051 556.105 121.008 557.385 121.008C558.75 120.923 560.116 120.837 561.481 120.752V126H535.369V122.16C538.014 122.16 539.849 121.52 540.873 120.24C541.897 118.875 542.494 117.04 542.665 114.736C542.836 112.347 542.921 109.616 542.921 106.544V88.624C542.836 81.2853 541.598 75.7387 539.209 71.984C536.905 68.2293 533.236 66.3947 528.201 66.48C525.129 66.5653 522.1 67.376 519.113 68.912C516.212 70.448 513.78 72.4107 511.817 74.8C511.902 75.4827 511.945 76.2507 511.945 77.104C511.945 77.9573 511.945 78.8533 511.945 79.792L511.817 112.432C511.817 114.139 511.774 115.675 511.689 117.04C511.689 118.32 511.561 119.685 511.305 121.136C512.67 121.051 513.993 121.008 515.273 121.008C516.638 120.923 518.004 120.837 519.369 120.752V126H493.257ZM602.239 128.048C596.522 128.048 591.231 126.768 586.367 124.208C581.588 121.563 577.748 117.808 574.847 112.944C572.031 107.995 570.623 102.064 570.623 95.152C570.623 90.7147 571.434 86.4053 573.055 82.224C574.676 78.0427 576.938 74.288 579.839 70.96C582.826 67.5467 586.367 64.8587 590.463 62.896C594.559 60.9333 599.082 59.952 604.031 59.952C608.81 59.952 612.948 60.6773 616.447 62.128C620.031 63.5787 622.804 65.4987 624.767 67.888C626.73 70.2773 627.711 72.88 627.711 75.696C627.711 77.5733 627.199 79.1947 626.175 80.56C625.151 81.84 623.658 82.48 621.695 82.48C619.562 82.5653 618.026 81.9253 617.087 80.56C616.234 79.1093 615.807 77.8293 615.807 76.72C615.807 75.8667 615.935 75.0133 616.191 74.16C616.447 73.2213 616.959 72.368 617.727 71.6C617.044 69.552 615.85 68.0587 614.143 67.12C612.436 66.096 610.644 65.456 608.767 65.2C606.975 64.8587 605.482 64.688 604.287 64.688C598.484 64.688 593.578 67.0347 589.567 71.728C585.642 76.336 583.679 83.0773 583.679 91.952C583.679 97.6693 584.575 102.747 586.367 107.184C588.244 111.621 590.847 115.12 594.175 117.68C597.503 120.155 601.343 121.392 605.695 121.392C609.706 121.392 613.546 120.325 617.215 118.192C620.884 116.059 623.743 113.456 625.791 110.384L629.119 112.944C626.9 116.528 624.212 119.429 621.055 121.648C617.983 123.867 614.783 125.488 611.455 126.512C608.212 127.536 605.14 128.048 602.239 128.048ZM669.483 128.048C663.595 128.048 658.262 126.683 653.483 123.952C648.79 121.136 645.078 117.211 642.347 112.176C639.616 107.056 638.251 101.04 638.251 94.128C638.251 88.1547 639.574 82.5653 642.219 77.36C644.95 72.1547 648.747 67.9733 653.611 64.816C658.475 61.5733 664.107 59.952 670.507 59.952C674.091 59.952 677.419 60.5493 680.491 61.744C683.648 62.8533 686.422 64.6027 688.811 66.992C691.2 69.296 693.078 72.24 694.443 75.824C695.808 79.3227 696.491 83.4613 696.491 88.24L651.435 89.008C651.435 95.4933 652.118 101.211 653.483 106.16C654.934 111.024 657.238 114.821 660.395 117.552C663.552 120.197 667.606 121.52 672.555 121.52C675.2 121.52 677.888 121.051 680.619 120.112C683.435 119.173 686.038 117.893 688.427 116.272C690.816 114.651 692.736 112.859 694.187 110.896L697.259 113.456C694.955 117.04 692.182 119.899 688.939 122.032C685.696 124.165 682.368 125.701 678.955 126.64C675.542 127.579 672.384 128.048 669.483 128.048ZM651.819 83.632H684.459C684.459 80.56 683.99 77.616 683.051 74.8C682.198 71.8987 680.747 69.552 678.699 67.76C676.651 65.8827 673.963 64.944 670.635 64.944C665.686 64.944 661.547 66.4373 658.219 69.424C654.976 72.3253 652.843 77.0613 651.819 83.632Z" fill="white"/>
</g>
<defs>
<clipPath id="clip0_3_5">
<rect width="730" height="161" fill="white"/>
</clipPath>
</defs>
</svg>
